<svg xmlns="http://www.w3.org/2000/svg" viewBox="0 0 537.86 373"><defs><style>.cls-1{fill:gray;}.cls-2{fill:#fbb03b;}.cls-3{fill:#f7931e;}.cls-4{fill:#ffc783;}.cls-5{fill:#534741;}.cls-6{fill:#3a312d;}.cls-7{fill:#85453d;}.cls-8{fill:#ffb4a9;}.cls-9{fill:#353535;}.cls-10{fill:#a45e43;}.cls-11{fill:#4f4f4f;}.cls-12{fill:#ff8d7e;}.cls-13{fill:#ff4996;}.cls-14{fill:#ff6b8a;}.cls-15{fill:#ffa754;}.cls-16{fill:#ffcb63;}.cls-17{fill:#40211d;}.cls-18{fill:#ffe2a8;}.cls-19{fill:#fff0d3;}.cls-20{fill:#999;}</style></defs><title>oldUXresearch</title><g id="Layer_2" data-name="Layer 2"><g id="Layer_1-2" data-name="Layer 1"><polygon class="cls-1" points="231.58 323.03 384.72 273.41 537.86 323.03 384.72 373 231.58 323.03"/><polygon class="cls-2" points="383.2 373 231.58 324.48 231.58 148.59 383.2 197.11 383.2 373"/><polygon class="cls-3" points="537.86 324.48 383.2 373 383.2 197.11 537.86 148.59 537.86 324.48"/><polygon class="cls-4" points="383.2 0 231.58 148.59 383.2 197.11 383.2 0"/><polygon class="cls-2" points="537.86 148.59 383.2 0 383.2 197.11 537.86 148.59"/><path class="cls-5" d="M277.07,272.93v66.71l24.21,7.57V248.67A24.25,24.25,0,0,0,277.07,272.93Z"/><path class="cls-6" d="M325.59,272.93a24.26,24.26,0,0,0-24.26-24.26h-.05v98.54l24.31,7.59Z"/><path class="cls-7" d="M109,240.39H103.1a2.94,2.94,0,0,0-2.94-2.94H78.6v-5.88h21.56A8.83,8.83,0,0,1,109,240.39Z"/><path class="cls-8" d="M120.73,240.39h-5.88a8.83,8.83,0,0,1,8.82-8.82h21.56v5.88H123.67A2.94,2.94,0,0,0,120.73,240.39Z"/><path class="cls-9" d="M206,329.61l-3.91-11.72v0a2.94,2.94,0,0,0-2.79-2H172.67a2.94,2.94,0,0,1-2.94-2.94v-39.2h-5.88v39.2a8.83,8.83,0,0,0,8.82,8.82H197.2l3.25,9.74a2.94,2.94,0,1,0,5.58-1.86Z"/><path class="cls-10" d="M54.1,273.71v39.2a2.94,2.94,0,0,1-2.94,2.94H24.51a2.94,2.94,0,0,0-2.79,2v0L17.8,329.61a2.94,2.94,0,1,0,5.58,1.86l3.25-9.74H51.16A8.83,8.83,0,0,0,60,312.91v-39.2Z"/><path class="cls-7" d="M83.89,273.71v77.06L93.64,354a2.94,2.94,0,1,1-1.86,5.57L80,355.68a3,3,0,0,1-2-2.79V273.71Z"/><path class="cls-11" d="M140.33,273.71v77.06L130.58,354a2.94,2.94,0,1,0,1.86,5.57l11.76-3.91a3,3,0,0,0,2-2.79V273.71Z"/><path class="cls-12" d="M172.67,231.57A32.37,32.37,0,0,0,205,199.24a2.94,2.94,0,0,1,5.88,0,38.26,38.26,0,0,1-38.22,38.21H155v-5.88Z"/><path class="cls-10" d="M51.16,237.45a32.38,32.38,0,0,0-32.34,32.34,2.94,2.94,0,0,1-5.88,0,38.27,38.27,0,0,1,38.22-38.22H68.8v5.88Z"/><polygon class="cls-13" points="68.8 269.21 80.56 297.23 92.32 297.23 92.32 285.47 68.8 269.21"/><polygon class="cls-14" points="68.8 269.21 45.28 285.47 45.28 297.23 80.56 297.23 80.56 280.97 68.8 269.21"/><path class="cls-15" d="M86.44,262V234.51a7.84,7.84,0,0,0-7.84-7.84H66.84v47L80.56,281a17.54,17.54,0,0,0,11.76,4.5v-8A23.48,23.48,0,0,0,86.44,262Z"/><path class="cls-16" d="M74.68,262V234.51a7.84,7.84,0,0,0-7.84-7.84H59a7.84,7.84,0,0,0-7.84,7.84V262a23.43,23.43,0,0,0-5.88,15.55v8A17.54,17.54,0,0,0,57,281a17.62,17.62,0,0,0,23.52,0V277.5A23.48,23.48,0,0,0,74.68,262Z"/><path class="cls-7" d="M69.19,179.64v35.28a17.64,17.64,0,0,0,0-35.28Z"/><path class="cls-10" d="M75.07,197.28c0-9.74-2.63-17.64-5.88-17.64a17.64,17.64,0,0,0,0,35.28C72.44,214.92,75.07,207,75.07,197.28Z"/><path class="cls-17" d="M81,167.88a5.25,5.25,0,0,0-1,.09v-.09a5.88,5.88,0,0,0-10.78-3.25,5.88,5.88,0,0,0-10.78,3.25s0,.06,0,.09a5.36,5.36,0,0,0-1-.09,5.88,5.88,0,0,0,0,11.76H81a5.88,5.88,0,0,0,0-11.76Z"/><path class="cls-7" d="M100.16,249.21H74.68a2.94,2.94,0,0,1,0-5.88h25.48a2.94,2.94,0,0,0,2.94-2.94,2.94,2.94,0,1,1,5.88,0A8.83,8.83,0,0,1,100.16,249.21Z"/><path class="cls-12" d="M155,214.92V179.64a17.64,17.64,0,0,1,0,35.28Z"/><path class="cls-8" d="M160.91,197.28c0,9.74-2.63,17.64-5.88,17.64a17.64,17.64,0,0,1,0-35.28C158.28,179.64,160.91,187.54,160.91,197.28Z"/><path class="cls-9" d="M155,262v29.4a17.64,17.64,0,0,0,17.64-17.64Z"/><path class="cls-11" d="M160.91,273.71,155,262l-17.64,11.76A17.64,17.64,0,0,0,155,291.35C158.28,291.35,160.91,283.45,160.91,273.71Z"/><path class="cls-18" d="M164.83,226.67H153.07l7.84,47h11.76v-39.2A7.84,7.84,0,0,0,164.83,226.67Z"/><path class="cls-19" d="M153.07,226.67h-7.84a7.84,7.84,0,0,0-7.84,7.84v39.2h23.52v-39.2A7.84,7.84,0,0,0,153.07,226.67Z"/><path class="cls-8" d="M149.15,249.21H123.67a8.83,8.83,0,0,1-8.82-8.82,2.94,2.94,0,1,1,5.88,0,2.94,2.94,0,0,0,2.94,2.94h25.48a2.94,2.94,0,0,1,0,5.88Z"/><polygon class="cls-20" points="0 69 0 127.24 77.07 127.24 77.38 127.24 90.94 140 90.94 127.24 90.94 69 0 69"/><polygon class="cls-20" points="217.94 14 217.94 89 154.34 89 153.94 89 136.94 105 136.94 89 136.94 14 217.94 14"/></g></g></svg>