<?xml version="1.0" encoding="UTF-8"?>
<svg width="118px" height="129px" viewBox="0 0 118 129" version="1.1" xmlns="http://www.w3.org/2000/svg" xmlns:xlink="http://www.w3.org/1999/xlink">
    <!-- Generator: Sketch 53.2 (72643) - https://sketchapp.com -->
    <title>green-africa-continental-map-by-Vexels</title>
    <desc>Created with Sketch.</desc>
    <g id="Page-1" stroke="none" stroke-width="1" fill="none" fill-rule="evenodd">
        <g id="Desktop-HD" transform="translate(-1247.000000, -513.000000)" fill="#CC6A00" fill-rule="nonzero">
            <g id="green-africa-continental-map-by-Vexels" transform="translate(1247.000000, 513.000000)">
                <path d="M117.869135,47.5438102 C117.193246,47.0975885 116.297381,47.0975885 114.713446,48.2101523 C113.141692,49.3285797 110.435768,48.882358 109.08387,48.6561394 C107.734101,48.4402408 106.601941,49.3285797 104.576046,47.7679178 C102.548259,46.2031514 104.348148,44.6363914 102.322253,43.5220685 C100.298368,42.4095047 99.6224782,41.7353054 98.7144324,39.9445549 C97.8104078,38.1577918 97.1426784,37.4854688 95.7907807,36.5932599 C94.4328514,35.6968293 93.9828496,34.3601578 93.3049494,30.7806506 C92.6268126,27.2092352 90.159076,22.5152878 88.8051678,20.7264138 C88.1535226,19.8680967 87.5603007,17.7852206 87.1123094,15.8503423 C86.6258817,13.7375617 86.321347,11.788728 86.321347,11.788728 L84.5416814,12.0808537 L83.6174333,12.2369433 C83.6174333,12.2369433 78.2097242,11.5585222 75.731935,11.3365254 C73.2461037,11.1185159 68.7381617,8.88342016 66.2564697,8.65942976 C63.7805727,8.43321119 64.9165168,11.3365254 63.1065752,12.4609337 C61.2986442,13.5734975 63.1065752,12.4609337 60.1787842,12.4609337 C57.2449616,12.4609337 57.9228618,12.0048611 56.5690719,10.8922973 C55.2193029,9.77586355 52.2932859,8.43321119 49.8114756,8.43321119 C47.3254078,8.43321119 48.4554386,6.20221997 49.1354676,3.7372702 C49.8114756,1.28029495 50.2633697,1.50651352 49.1354676,1.28029495 C48.0054368,1.05818092 48.231443,-0.504474573 46.4295434,0.165972064 C44.6216124,0.836184156 42.8178206,0.388086098 41.9179352,0.610200131 C41.0220709,0.836184156 34.9343328,1.28041222 33.5803063,1.28041222 C32.2284086,1.28041222 29.9846676,3.06518175 28.3944641,3.52148888 C26.8205813,3.9654824 24.1167859,3.9654824 22.0929012,3.29527031 C20.0549429,2.62693457 20.7329614,1.95672248 20.0549429,3.52148888 C19.3870953,5.0780462 18.2530434,7.54299597 16.6811711,7.75912911 C15.1011385,7.98722404 13.5272556,10.4461929 13.5272556,12.2371779 C13.5272556,14.0238238 13.5272556,15.8126978 11.4974577,16.258685 C9.46967027,16.7010367 6.53975043,20.0544426 5.63371524,22.0693007 C4.73382987,24.0800542 2.92980157,25.8668174 1.12991257,27.6575678 C-0.678018504,29.4384673 1.35390822,31.2312114 2.25580411,33.2460695 C3.1618393,35.252953 1.57790387,34.8106013 1.80603882,37.2696875 C2.02589516,39.7207991 0,41.2875591 0,41.2875591 C1.57802214,42.175898 1.35402649,44.1988479 1.35402649,44.1988479 C0.447991295,46.2036205 2.02601343,45.7573988 3.83595503,47.3241588 C5.63383351,48.8827098 6.76374608,49.7811341 7.21173738,52.2420966 C7.66363145,54.6932082 11.4974577,55.5936262 13.3012495,57.3742911 C15.1011385,59.1651588 15.1011385,60.2855799 17.5810565,59.1651588 C20.0549429,58.0506014 23.6648918,58.2687282 25.9206959,58.9389403 C28.172479,59.6132569 30.8784032,57.3741739 32.9082011,56.481965 C34.9340963,55.5936262 37.4159065,56.481965 39.2157955,57.5964052 C41.0218344,58.7169435 38.0920328,59.1652761 40.3397948,59.3891492 C42.5957172,59.6132569 43.5017524,58.9390575 45.5295398,60.5075766 C47.5534245,62.0663621 46.6515286,64.5254483 45.3055442,66.768284 C43.9497437,68.9951707 46.2035373,71.4583614 48.9073327,72.3526812 C51.607107,73.2428964 48.6791977,73.9153367 50.9372489,76.82041 C53.1931713,79.7236069 51.607107,82.4089116 52.7410407,83.5232345 C53.8650399,84.6437728 53.1931713,87.9931915 51.3911535,90.2301636 C49.5852329,92.4630312 50.4892576,96.0446493 51.607107,99.3859761 C52.7410407,102.747357 55.4430621,108.10964 55.672971,110.342742 C55.8928273,112.579714 58.6007621,117.27155 59.952778,119.726532 C61.3046757,122.187612 61.0786696,127.101797 61.982576,127.772009 C62.8844719,128.442338 66.034248,129.562759 67.6203122,128.666329 C69.190174,127.772009 71.6719843,127.996117 73.9218751,127.996117 C76.1819368,127.996117 77.9818258,125.317027 80.0096132,123.528153 C82.0374006,121.735409 82.0374006,121.069067 84.0653063,119.282538 C86.0972331,117.495775 85.8732374,117.045566 85.8732374,114.592461 C85.8732374,112.135486 88.3531554,111.237062 90.3769218,110.570719 C92.4026987,109.896403 91.2809465,106.767222 90.1589577,104.75424 C89.0208848,102.747357 89.4708866,103.421673 91.5028133,100.286511 C93.5326113,97.1570958 96.0105188,96.7128678 98.9424491,95.1463423 C101.87024,93.5815759 98.4965866,91.5688287 99.392451,88.4455114 C100.29825,85.3160958 98.2625384,84.8679978 98.4965866,82.6348957 C98.7143142,80.3979235 97.592562,79.4976229 97.1426784,77.9329738 C96.686645,76.3723119 98.4965866,74.3675393 99.3925692,72.7969092 C100.298368,71.2301492 101.648492,68.995288 103.900275,67.2105185 C106.158208,65.4277426 109.759878,63.1887768 113.141928,59.1652761 C116.521259,55.1430654 118.549046,47.9939018 117.869135,47.5438102 Z" id="Path"></path>
                <path d="M105.754308,110.811609 C105.754308,110.811609 106.398795,109.773557 105.754308,106.667489 C105.104151,103.559611 104.775215,103.221722 105.754308,102.185722 C106.720017,101.14767 103.408772,95.627972 106.038894,95.281995 C108.666974,94.9379494 109.100262,95.281995 110.667809,93.5580248 C112.237284,91.8320025 114.184015,91.1421006 114.184015,89.4099217 C114.184015,87.6941603 117.841663,91.8320025 116.819808,93.2182044 C115.802036,94.5918516 115.471059,95.627972 115.471059,97.012001 C115.471059,98.3919255 113.857007,100.805798 113.857007,101.839866 C113.857007,102.875865 113.857007,105.983744 113.857007,105.983744 C113.857007,105.983744 113.54157,110.352278 112.237171,110.811609 C108.345639,112.195517 105.754308,114.953314 105.754308,110.811609 Z" id="Path"></path>
            </g>
        </g>
    </g>
</svg>