<?xml version="1.0" encoding="UTF-8"?>
<svg width="420px" height="420px" viewBox="0 0 420 420" version="1.1" xmlns="http://www.w3.org/2000/svg" xmlns:xlink="http://www.w3.org/1999/xlink">
    <!-- Generator: Sketch 53.2 (72643) - https://sketchapp.com -->
    <title>Blank_globe</title>
    <desc>Created with Sketch.</desc>
    <g id="Page-1" stroke="none" stroke-width="1" fill="none" fill-rule="evenodd">
        <g id="Desktop-HD" transform="translate(-132.000000, -252.000000)" fill-rule="nonzero">
            <g id="Group" transform="translate(67.000000, 189.000000)">
                <g id="Blank_globe" transform="translate(65.000000, 63.000000)">
                    <path d="M420,210.503149 C420,326.202303 325.981269,420 210.003157,420 C94.0250447,420 0,326.204403 0,210.503149 L0,210.503149 C0,94.7976969 94.0229401,1 210.003157,1 C325.983374,1 420,94.7976969 420,210.503149 Z" id="Path" fill="#FFFFFF"></path>
                    <path d="M194.652923,408.871808 C193.587471,408.711803 192.673924,408.193892 192.60852,407.741246 C192.551555,407.278073 192.475602,406.579104 192.429186,406.179091 C192.315257,405.202218 187.386747,400.894713 184.152412,398.940967 C182.519421,397.964094 181.21134,396.462994 180.675449,394.961894 C180.192303,393.635536 179.542483,392.54708 179.232341,392.54708 C178.928529,392.54708 178.681681,392.094434 178.681681,391.538627 C178.681681,390.976504 178.012872,390.062791 177.198487,389.48172 C176.39043,388.919597 175.926273,388.115361 176.183669,387.702716 C176.472713,387.239544 176.230085,387.117435 175.554947,387.367969 C174.75744,387.681663 174.468396,387.325862 174.468396,386.090034 C174.468396,385.020526 173.257366,383.13415 171.227732,381.005662 C167.879467,377.538184 166.442689,373.274891 167.95753,371.352725 C168.343625,370.870604 168.858418,369.615827 169.115815,368.563162 C169.368991,367.514708 170.523056,365.952553 171.670791,365.09779 C174.164584,363.261942 174.236317,362.584026 172.288965,359.293395 C171.474579,357.916509 170.995653,356.318564 171.227732,355.71644 C171.453481,355.131158 170.337393,351.964742 168.740269,348.705691 C166.586155,344.276077 164.841345,341.848632 161.900273,339.166442 C158.351577,335.938971 154.792332,331.054606 154.792332,329.406132 C154.792332,329.071385 155.271258,328.778744 155.847236,328.778744 C156.562461,328.778744 156.908469,328.048194 156.923238,326.507093 C156.938006,325.252316 157.406383,323.61858 157.978141,322.866978 C159.811564,320.441638 158.729233,315.468849 156.78399,317.397331 C156.305064,317.883662 155.507557,318.271043 154.996983,318.271043 C153.703671,318.271043 153.864017,316.214135 155.203745,315.704645 C157.237599,314.923568 154.70372,314.085647 150.228819,314.066699 C147.91014,314.056172 145.658976,313.809849 145.226465,313.531945 C144.793955,313.237199 143.604023,311.373982 142.599755,309.371813 C140.992082,306.19066 140.409775,305.660117 138.107975,305.228524 C134.574048,304.56745 130.238394,304.575872 123.885764,305.255893 C118.946704,305.790647 118.389715,305.702223 115.102635,303.944273 C112.383094,302.495806 110.23531,301.98 105.619051,301.678938 C98.7832751,301.219976 98.2115173,300.859965 92.0719777,293.042875 C90.0993078,290.539638 87.0443067,287.166899 85.2889469,285.539479 C83.1917984,283.59626 82.3584245,282.398327 82.8732175,282.034105 C84.1306627,281.160393 83.1770297,277.288691 81.1431754,275.006514 C80.117809,273.854898 78.8772422,272.324323 78.3919865,271.604301 C77.9025112,270.869541 76.8623762,269.328439 76.0796376,268.181034 C75.0247339,266.61888 74.7926551,265.538845 75.1682008,263.976691 C75.450915,262.814548 75.7083115,260.30289 75.72519,258.374408 C75.7505077,256.138547 76.1682495,254.498495 76.8792546,253.820579 C78.3582296,252.42264 79.8097771,248.917266 78.913109,248.917266 C78.5375633,248.917266 78.2274216,247.971973 78.2274216,246.809831 C78.2274216,245.658215 78.4995867,244.712922 78.8350461,244.712922 C79.1705055,244.712922 79.4068039,245.264519 79.3646078,245.936119 C79.1747251,248.691996 80.5756372,247.633015 80.8330337,244.822399 C81.0229164,242.790756 80.8689004,241.927571 80.3752055,242.241265 C79.438451,242.811809 79.427902,242.965498 80.6832374,237.00952 C81.5377094,232.942023 82.2951302,231.369342 84.7277382,228.55241 C86.3712781,226.647087 88.2658852,224.918611 88.9410235,224.703867 C89.6203815,224.487018 90.1668216,223.851209 90.1668216,223.274348 C90.1668216,221.413237 92.2998369,218.960527 94.2661774,218.571041 C95.3590577,218.352087 96.6207225,217.404689 97.1608332,216.402552 C97.907705,215.015139 98.4836824,214.711972 99.7558963,215.025666 C100.770714,215.288832 101.409985,215.135143 101.409985,214.634074 C101.409985,214.191955 101.802409,213.888788 102.285555,213.973001 C102.768701,214.048793 103.640052,213.911946 104.218139,213.665623 C104.794116,213.42351 106.097977,212.928757 107.102246,212.560325 C108.513707,212.046624 109.034829,211.265547 109.374508,209.198113 C109.967364,205.471679 114.184869,201.189438 118.34119,200.090456 C122.28231,199.052528 125.223381,195.418729 124.738126,192.170205 C124.527145,190.715422 124.03345,190.06698 123.141001,190.06698 C122.436326,190.06698 121.668356,189.749075 121.429948,189.368011 C121.18732,188.982735 120.383483,188.66483 119.628172,188.66483 C118.00995,188.66483 117.948765,188.098497 119.345458,186.243701 C120.005828,185.3742 120.231577,184.094159 119.974181,182.7278 C119.6556,181.016167 120.010047,180.01403 121.714772,177.875015 C123.944838,175.079137 125.274017,171.466391 125.284566,168.201024 C125.288785,166.567288 125.695978,166.190434 128.168673,165.523045 C130.559084,164.88513 131.253211,164.937763 132.257479,165.847265 C132.926288,166.44939 133.941106,166.942037 134.508644,166.942037 C135.080402,166.942037 135.852591,167.259942 136.234466,167.636796 C136.610012,168.011544 138.49618,168.803149 140.411885,169.38422 C143.760149,170.401094 143.956361,170.386357 145.110426,169.003155 C145.775015,168.20734 146.526107,166.468338 146.768735,165.148296 C147.298296,162.341891 146.593621,157.844907 145.625219,157.844907 C145.260222,157.844907 144.95641,157.406998 144.95641,156.863823 C144.95641,156.324858 144.481703,155.707997 143.901506,155.480621 C143.287552,155.244824 142.850822,154.19637 142.850822,152.956331 C142.850822,150.952057 143.004838,150.834158 145.602011,150.834158 C147.121072,150.834158 148.532534,151.22996 148.760393,151.712081 C148.981923,152.194201 148.967154,151.825768 148.735075,150.905739 C148.399616,149.579381 148.545192,149.312005 149.399664,149.640436 C149.99674,149.872022 150.614913,149.682543 150.785808,149.21937 C150.98624,148.644615 151.52846,148.77304 152.51163,149.650963 C153.872456,150.853106 154.083437,150.859422 156.653182,149.733071 L159.362175,148.541454 L156.90003,147.928803 C155.549753,147.594055 152.07279,147.198253 149.173915,147.044564 C146.27293,146.901402 143.348737,146.741397 142.677818,146.705606 C140.772662,146.591918 141.23049,145.457146 143.374054,144.979236 C144.439507,144.743439 145.93958,144.059207 146.715989,143.463398 C147.855285,142.57916 147.931238,142.265466 147.137951,141.772818 C145.844639,140.981214 146.680123,138.930623 148.302565,138.930623 C149.239319,138.930623 149.574778,138.410607 149.55368,137.008457 C149.532582,135.317877 149.77099,135.107344 151.454617,135.286297 C153.165671,135.461039 153.376651,135.261033 153.309137,133.532557 C153.262722,132.340941 153.102376,132.056721 152.908274,132.797797 C152.73316,133.475713 152.104437,134.020994 151.511582,134.020994 C150.846992,134.020994 150.585376,133.625192 150.825894,132.983066 C151.161354,132.113565 151.001008,132.08409 149.846944,132.804113 C149.089523,133.282023 148.46713,134.326267 148.46713,135.136819 C148.46713,135.94316 147.91647,137.090565 147.237112,137.680057 C145.815102,138.917991 139.968825,139.920128 137.924422,139.273792 C135.833603,138.610613 136.08045,135.593675 138.306297,134.576801 C139.36753,134.098891 139.943508,133.378868 139.721978,132.808324 C139.171318,131.378805 141.45202,128.275549 142.705246,128.747142 C143.277003,128.972413 144.331907,128.633455 145.034473,127.991329 C145.777125,127.323939 147.017692,126.978665 147.996642,127.163934 C149.125389,127.380783 149.948214,127.050247 150.490435,126.197588 C150.990459,125.401773 151.026326,124.913337 150.587486,124.913337 C149.34059,124.913337 149.825845,123.515398 151.112828,123.43329 C152.281661,123.351182 152.281661,123.336445 151.112828,123.033277 C149.458739,122.601685 149.56212,121.831134 151.541119,119.698435 C153.241624,117.862587 155.501227,117.298359 155.501227,118.700508 C155.501227,119.256315 155.80504,119.239473 156.520264,118.639454 C157.081473,118.176281 157.895859,118.007855 158.32204,118.275232 C158.744001,118.538398 159.722952,118.193124 160.476153,117.508892 C161.573253,116.517281 162.026862,116.4457 162.712549,117.138354 C163.402456,117.826796 163.098644,118.433131 161.286319,120.062657 C159.313649,121.835344 159.189171,122.119564 160.40653,122.119564 C162.271599,122.119564 162.271599,124.304896 160.40653,125.978634 C158.779868,127.448154 158.963421,129.829282 161.189268,135.976845 C162.714659,140.21698 162.955177,144.970814 161.647096,145.429776 C161.16395,145.604519 160.978287,145.968741 161.229354,146.242434 C162.012093,147.090882 165.714805,144.747649 167.708573,142.124408 C169.434395,139.867495 169.938639,139.631698 173.050605,139.631698 C176.841929,139.631698 176.960078,139.482219 177.628887,134.100996 C178.154229,129.928232 178.740756,129.090311 181.899138,128.010277 C183.996286,127.286043 184.726279,127.269201 185.144021,127.921853 C185.458383,128.4145 185.690461,127.818692 185.690461,126.492334 C185.70523,123.97857 184.700962,123.582768 182.502542,125.248084 C181.751451,125.814418 180.190194,126.286012 179.02558,126.296538 C175.894626,126.328118 174.940993,124.338582 175.544398,119.054204 C176.198438,113.38034 177.301867,111.422383 180.740853,109.879176 C182.316879,109.16968 183.599642,108.342285 183.599642,108.043328 C183.599642,107.73595 184.711511,107.087509 186.072337,106.603283 C187.736975,106.001159 189.363636,104.527428 191.043043,102.089456 C192.422857,100.099919 194.309025,98.0640649 195.245779,97.5714177 C196.178314,97.0619279 196.817586,96.5334901 196.65724,96.3692744 C196.496895,96.2092693 195.67829,96.4513822 194.838586,96.8977122 C193.998883,97.3440421 193.144411,97.5461538 192.93765,97.3398314 C192.380661,96.7798137 196.944174,92.7712656 199.885246,91.2491121 C201.307256,90.514352 202.661752,89.5943228 202.9086,89.2027315 C203.151228,88.8069295 204.277865,88.4827087 205.417161,88.4827087 C206.550127,88.4827087 207.482662,88.2300691 207.482662,87.9269016 C207.482662,87.0995069 211.674849,85.8405197 214.611701,85.7836758 C216.405038,85.7478852 217.729997,86.251059 219.038077,87.463729 C220.067663,88.4153381 221.367305,89.1858888 221.922184,89.1858888 C222.483393,89.1858888 222.941221,89.5037937 222.941221,89.889069 C222.941221,90.2743444 223.563614,90.5880385 224.331584,90.5880385 C226.819047,90.5880385 234.726605,94.2365752 235.540991,95.7629394 C235.998819,96.6008606 237.100138,97.2850929 238.117066,97.3461474 C239.754276,97.4429926 239.800692,97.3566741 238.790094,96.2408492 C238.188799,95.5734597 237.692994,94.5039521 237.692994,93.8618265 C237.692994,93.2133849 237.368084,92.6849471 236.986209,92.6849471 C236.600114,92.6849471 236.281533,92.1817733 236.281533,91.5585956 C236.281533,90.6890944 236.806875,90.4996147 238.568564,90.7564649 C239.81968,90.9269967 241.402036,91.305956 242.070845,91.5985969 C242.971732,91.9901882 243.950683,91.3817479 245.862169,89.270102 C247.524697,87.4153064 249.265288,86.2531643 250.790679,85.9647341 C255.299337,85.1268129 252.662078,82.1709297 247.874925,82.7056835 C245.995086,82.9162165 244.176432,82.638313 242.771301,81.9098688 C240.921,80.9582597 240.520136,80.2761328 240.165689,77.4528855 C239.93361,75.6233538 239.562284,73.3348603 239.344973,72.3748298 C238.490501,68.5241815 238.876596,66.5620141 240.762764,65.1935497 C241.775472,64.4524735 242.617285,63.3787553 242.617285,62.8040003 C242.617285,62.1829279 243.115199,61.8587071 243.843083,62.0081856 C244.805155,62.1976653 245.011916,62.789263 244.800935,64.6903758 C244.646919,66.0272603 244.492904,69.433684 244.465476,72.2716687 C244.410621,76.8149705 244.589955,77.5813106 245.990867,78.7118728 C248.081686,80.398242 254.202237,81.5435414 257.725616,80.9056265 L260.537989,80.391926 L258.601186,78.7160834 C257.539952,77.7855276 256.674931,76.4023259 256.674931,75.6317752 C256.674931,74.8612244 256.231872,73.7411889 255.695981,73.1285379 C255.15587,72.5222029 254.491281,70.9537322 254.212786,69.6484277 C253.72964,67.3704607 253.780276,67.2988795 255.495549,67.7262615 C257.050477,68.1115369 257.307874,67.9262678 257.504086,66.2567412 L257.723506,64.3345751 L259.299532,66.0356816 C260.582295,67.4083567 260.881887,67.5115178 260.881887,66.5493821 C260.881887,65.9009405 260.535879,65.3661867 260.103368,65.3661867 C259.64554,65.3661867 259.453548,64.6356372 259.656089,63.6124469 C259.835423,62.6503112 259.742591,61.8587071 259.442999,61.8587071 C259.139186,61.8587071 258.696127,60.5218227 258.449279,58.8817707 C257.546282,52.9510565 257.274117,52.1952431 255.92595,51.8394423 C253.999696,51.3362685 254.17481,49.2583079 256.14326,49.2288333 C257.6792,49.2035693 257.68131,49.182516 256.312045,48.4161759 C255.546184,47.9782673 254.674834,47.2750871 254.396339,46.8582318 C254.041892,46.329794 253.877327,46.323478 253.866778,46.8434945 C253.856229,47.2540338 251.830814,47.99511 249.364449,48.4835465 C244.630041,49.4246289 243.11098,49.1004081 241.157298,46.7213854 C240.235312,45.6118765 240.349242,45.5487167 242.55821,45.9803093 C244.222848,46.3150567 245.473964,46.119261 246.663895,45.3423943 C247.682932,44.6750048 249.043758,44.3907852 250.062795,44.6476355 C251.067063,44.9002751 251.752751,44.7613233 251.752751,44.319204 C251.752751,43.8202408 252.807654,43.7170797 254.811971,44.0160365 C257.246689,44.3760479 257.957694,44.2476228 258.303703,43.3633842 C258.833264,41.9759719 260.924084,41.9507079 265.268177,43.2665391 C268.506731,44.2539388 268.605892,44.2370961 268.605892,42.8096825 C268.605892,42.0033412 269.156552,40.9338336 269.83591,40.4138171 C270.954108,39.5653692 270.897143,39.4790506 269.17554,39.4579973 C266.930705,39.4327334 266.424351,38.8158717 266.966572,36.7484378 C267.289372,35.5210305 267.903326,35.2157577 270.266311,35.1757564 C271.863435,35.1399658 272.774872,34.9589074 272.295945,34.7652171 C271.80858,34.5694214 271.416156,33.9778237 271.416156,33.4388592 C271.416156,30.9103581 264.204834,28.906084 261.757457,30.750353 C259.269995,32.6325179 254.556685,31.4493225 254.556685,28.9418746 C254.556685,28.2007985 254.244433,27.4091945 253.856229,27.1733976 C252.594564,26.3965308 253.113577,24.7206883 254.628418,24.7206883 C255.510318,24.7206883 256.246641,25.280706 256.46817,26.1186273 C256.668602,26.8849674 257.168626,27.5228823 257.573709,27.5228823 C257.980902,27.5228823 258.888119,28.0471095 259.582246,28.6744978 C260.767958,29.7376893 260.890327,29.7376893 261.297519,28.6744978 C261.538037,28.0471095 262.177309,27.5228823 262.71953,27.5228823 C263.884143,27.5228823 264.010732,26.4028468 262.93684,25.7333519 C262.514878,25.4765017 262.329215,24.680687 262.514878,23.9711908 C262.755396,23.046951 262.16465,22.2700843 260.464146,21.2679473 C258.063185,19.8552709 257.326862,18.4468052 258.953523,18.3836454 C260.386083,18.3268014 253.73597,15.1309107 251.058624,14.5751036 C249.702018,14.2972001 245.119516,12.3960872 240.870364,10.3497066 C236.614883,8.30332594 232.426915,6.42326637 231.557674,6.16641612 C229.779107,5.64639965 229.41411,4.39793903 231.026003,4.39793903 C231.60198,4.39793903 232.083016,4.08003422 232.083016,3.69896952 C232.083016,3.31369415 232.557723,3 233.1337,3 C233.713897,3 234.184385,3.31369415 234.184385,3.69896952 C234.184385,4.08003422 235.053625,4.40214969 236.121188,4.40214969 C237.176091,4.40636035 238.998965,4.90532353 240.159359,5.51797452 C242.99283,7.00433741 249.640834,7.71172825 249.640834,6.52642753 C249.640834,5.97693643 250.104991,5.82745801 250.872961,6.12641486 C251.54599,6.3832651 255.736067,7.36434882 260.179322,8.31595792 C264.618356,9.25704037 268.890716,10.3265479 269.662906,10.684454 C273.11877,12.3034527 276.616831,13.505596 277.863727,13.505596 C278.610599,13.505596 280.154978,13.9877166 281.287945,14.5751036 C283.153014,15.5372394 283.357666,15.5372394 283.357666,14.5751036 C283.357666,13.9898219 283.682576,13.505596 284.068671,13.505596 C284.450546,13.505596 284.769127,13.9835059 284.769127,14.5540503 C284.769127,15.1288054 285.321896,15.6067153 286.005474,15.6067153 C286.691161,15.6067153 288.978193,16.2656835 291.100659,17.0720248 C293.216796,17.8741555 296.075585,18.7689207 297.451179,19.0552456 C300.263552,19.6300006 307.244905,23.2280094 307.244905,24.1080373 C307.244905,24.903852 299.240296,23.1311642 292.847579,20.9163572 C292.07539,20.6447696 292.628159,21.1521541 294.069158,22.0427087 C295.510156,22.9332632 296.700088,24.06172 296.700088,24.5459459 C296.706417,25.0238558 297.035547,25.4196578 297.427971,25.4196578 C297.820395,25.4196578 299.489253,26.6386438 301.115914,28.139744 C302.746796,29.6408442 307.403141,32.8367349 311.46241,35.2389163 C315.521679,37.6453083 319.827796,40.5485582 321.043045,41.689647 C322.433408,43.0012675 323.422908,43.4833881 323.718281,43.0054782 C324.401859,41.90018 323.532618,40.8369884 322.327918,41.2980556 C321.353187,41.6685937 321.188622,41.4117435 321.019838,39.2622017 C320.981861,38.7800811 320.467068,38.0179517 319.89742,37.5716218 C317.789722,35.9315698 319.851004,35.8957792 324.564314,37.4684606 C329.471726,39.1127232 330.925383,40.100123 329.632071,40.891727 C329.20378,41.1633145 329.389443,41.5233259 330.08568,41.7970188 C330.735501,42.0433424 331.562545,42.0601851 331.929652,41.8328094 C332.300978,41.6012231 333.035191,41.7759655 333.577411,42.2180848 C334.117522,42.6707307 335.528983,43.0560061 336.718914,43.087586 C338.288611,43.138114 338.830832,43.4581241 338.697914,44.2749921 C338.583984,45.0055415 339.041812,45.4013436 340.041861,45.4160809 C341.864735,45.4413448 348.70473,50.9930997 348.70473,52.4415666 C348.70473,53.8647696 347.729999,53.6900273 346.181401,51.9847101 C345.449297,51.1783687 344.21928,50.216233 343.440761,49.8456949 C341.778233,49.0540909 345.867039,52.826842 352.012908,57.7448926 C354.529908,59.7596933 357.276878,62.776631 358.498456,64.8798555 C360.696875,68.6273427 369.159313,77.6781558 373.362049,80.7729907 L375.737692,82.5267305 L373.100433,78.9287217 C370.353464,75.1770239 370.045432,74.4675277 371.121434,74.4675277 C372.047639,74.4675277 384.126287,90.514352 383.590396,91.0385791 C383.343548,91.2806921 382.66419,91.0806857 382.075554,90.5922492 C380.577591,89.3479992 380.746375,90.0638114 382.411013,91.9796616 C383.795047,93.5839229 384.217008,94.7818556 383.389964,94.7818556 C383.153665,94.7818556 381.332902,93.0491692 379.341243,90.9312073 C377.347475,88.8195615 375.427551,87.080559 375.079433,87.080559 C374.729204,87.080559 373.817768,86.5310679 373.056127,85.8573623 C371.691082,84.648903 371.691082,84.655219 372.843037,86.9058166 C373.604677,88.3816528 373.729156,89.1774675 373.214363,89.1774675 C372.777633,89.1774675 372.606738,89.6764307 372.832488,90.2680284 C373.106763,90.9775246 372.971735,91.1880576 372.456942,90.8596261 C370.83872,89.8722264 372.642605,91.943871 374.604726,93.3312834 L376.592164,94.7502757 L376.351646,92.6638938 C375.963442,89.3227353 377.29895,90.2490804 379.668264,94.9671247 C382.491186,100.590461 383.164214,101.432593 383.864671,100.29782 C384.242326,99.6956956 385.457575,100.579934 387.795242,103.154753 C391.607664,107.338043 393.441086,110.06234 396.58259,116.159375 C397.776741,118.466817 399.416061,121.047951 400.232556,121.879556 C402.705251,124.39332 403.515417,125.53862 404.57032,128.067121 C405.910048,131.248274 405.88895,132.892537 404.509136,132.364099 C403.684201,132.046194 403.58293,132.231463 404.093504,133.16623 C405.019709,134.909443 407.692835,147.903539 407.692835,150.672048 C407.692835,151.962615 408.378523,154.495327 409.218226,156.30591 C410.92506,159.996554 411.840717,166.946248 410.619138,166.946248 C410.203506,166.946248 409.50727,165.609363 409.083198,163.969311 C407.821534,159.097578 407.578906,158.417556 407.239227,158.767041 C407.059893,158.945994 407.370035,161.541866 407.946012,164.550382 C408.893316,169.54633 409.237214,170.251615 412.066466,172.862224 C416.032904,176.517077 417.237604,180.788791 417.866327,193.401823 C418.26719,201.55366 418.195457,202.684222 417.220726,202.684222 C416.61943,202.684222 416.119406,202.210523 416.119406,201.635768 C416.119406,201.054697 415.644699,200.583103 415.075051,200.583103 C414.499074,200.583103 414.024367,200.109404 414.024367,199.538859 C414.024367,197.966178 412.781691,198.269345 412.24158,199.966241 C411.665603,201.781036 412.498977,208.998106 413.281715,208.998106 C413.600296,208.998106 414.058124,210.345517 414.304972,211.983464 C414.629882,214.09511 415.20164,215.185671 416.252324,215.663581 C419.370619,217.0931 420.980402,229.994561 419.36007,240.506473 C418.792532,244.15501 417.990805,247.254055 417.577283,247.397218 C417.165871,247.527748 416.826192,248.096187 416.826192,248.630941 C416.826192,249.182538 416.507611,249.628868 416.119406,249.628868 C415.733311,249.628868 415.41895,249.150958 415.41895,248.569887 C415.41895,247.243529 412.520075,240.952803 411.762654,240.632793 C410.840668,240.247518 411.129712,238.978004 412.334412,238.100081 C413.33446,237.369532 413.256397,237.137945 411.627626,236.078964 C409.298399,234.5526 409.264642,232.152524 411.524246,230.034562 C412.982122,228.668203 413.439951,228.554516 414.353497,229.304013 C414.954792,229.802976 415.64048,230.013509 415.889437,229.767186 C416.600442,229.053479 413.931536,220.206883 413.00533,220.206883 C412.522184,220.206883 411.640285,217.880493 410.944048,214.779342 C408.8469,205.400098 408.249824,203.157921 406.741312,198.841995 L405.258118,194.637651 L404.536563,198.435666 C403.840327,202.048412 402.37823,203.888471 401.789594,201.879986 C401.641908,201.366286 401.150323,199.602019 400.707263,197.968283 C400.259984,196.328231 399.631261,194.991347 399.31268,194.991347 C398.98355,194.991347 397.513015,193.886049 396.036149,192.538637 C394.563504,191.1807 393.17736,190.085928 392.96638,190.096455 C392.223727,190.117508 388.010442,200.05256 388.010442,201.768404 C388.010442,202.709486 387.567383,204.955873 387.031491,206.768562 C385.866878,210.690792 384.366805,219.20264 384.438538,221.499555 C384.465966,222.400636 383.727533,224.712289 382.801328,226.649192 C381.24218,229.904032 381.183105,230.346151 382.11775,232.556748 C382.66419,233.876789 383.151556,236.443187 383.189532,238.266402 C383.276034,242.224422 384.271863,245.921382 385.459685,246.654036 C387.217154,247.734071 389.411354,251.671037 389.411354,253.742682 C389.411354,256.405924 388.158129,259.235488 386.736118,259.776557 C385.303559,260.326049 384.613652,259.092325 384.054553,255.020617 C383.550309,251.30471 382.653641,251.433135 381.366659,255.412209 C380.79912,257.149106 380.227363,257.694386 378.929831,257.694386 C377.585884,257.694386 376.817914,256.898572 375.237668,253.839527 C374.138458,251.727881 372.929539,249.881507 372.539224,249.759398 C372.1468,249.626762 371.05603,247.894076 370.108726,245.904539 C369.161423,243.917108 367.614934,241.474925 366.688728,240.483315 C365.762523,239.495915 364.787792,237.994815 364.515627,237.156893 C364.247681,236.321077 363.707571,235.630529 363.304597,235.630529 C362.905844,235.630529 362.739169,235.198937 362.94593,234.664183 C363.152691,234.129429 362.557726,232.571485 361.614642,231.19881 C360.679997,229.826135 359.920466,228.386089 359.920466,228.000814 C359.920466,227.609222 358.770621,227.445007 357.262109,227.62396 C355.479322,227.840809 353.713413,227.487113 351.854673,226.533399 C350.329282,225.758637 348.670973,225.120723 348.177278,225.120723 C347.683583,225.120723 347.270061,224.672287 347.270061,224.127007 C347.270061,223.577516 346.30166,222.920653 345.115948,222.663803 C343.930236,222.400636 342.79305,221.739563 342.582069,221.187966 C342.364759,220.638475 341.563032,219.840555 340.788733,219.436332 C339.683194,218.85105 338.976408,218.966843 337.5333,220.015298 C336.520592,220.745847 334.57324,221.794301 333.227183,222.329055 C331.872687,222.880652 330.153194,223.880683 329.395773,224.585969 C328.634132,225.278622 327.691049,225.727058 327.290185,225.583895 C326.882992,225.444943 325.131852,225.741795 323.3997,226.261811 C319.464909,227.445007 315.51535,227.485008 314.405591,226.37971 C313.169244,225.152302 313.289503,227.470271 314.591254,229.973508 C315.776966,232.266212 317.228514,232.990446 319.471239,232.430428 C320.44386,232.184104 322.062082,232.630434 323.695073,233.59257 C326.161438,235.036826 326.311234,235.312624 325.893493,237.664278 C325.652975,239.05169 325.275319,241.365448 325.055899,242.813915 C324.813271,244.407649 324.273161,245.439261 323.676085,245.439261 C323.015715,245.439261 322.690805,246.29192 322.690805,248.077239 C322.690805,249.948878 322.294161,250.959436 321.289893,251.586824 C320.517703,252.066839 319.878432,253.119504 319.878432,253.915319 C319.878432,254.799558 319.310894,255.530107 318.441653,255.755377 C317.570302,255.980648 316.844529,256.906993 316.60823,258.081767 C316.365602,259.300753 315.644048,260.178675 314.717843,260.420788 C312.380176,261.016597 308.06351,264.907246 307.816663,266.644144 C307.679525,267.616806 306.261735,269.0758 304.082304,270.499003 C302.14972,271.764306 299.818383,273.486466 298.911166,274.328598 C296.809798,276.265501 290.298932,280.465634 289.391715,280.465634 C289.00984,280.465634 287.847336,281.282502 286.798761,282.284639 C285.640477,283.398359 284.003267,284.145751 282.602355,284.211016 C280.541073,284.309966 280.140209,283.994167 278.71187,281.168814 C276.724431,277.221321 276.213858,275.74759 275.97123,273.176982 C275.838312,271.751674 274.699016,270.153728 272.236871,267.917868 C270.289519,266.14518 268.51728,264.052482 268.291531,263.246141 C268.070001,262.44401 266.858972,261.349239 265.612076,260.793432 C263.844057,260.01867 263.118283,259.092325 262.371411,256.645932 C260.753189,251.355238 259.333289,248.925687 257.5716,248.487779 C256.660163,248.251982 255.438584,247.161421 254.862607,246.047701 C254.28241,244.938193 253.543977,244.026585 253.210628,244.026585 C252.881498,244.026585 252.411011,243.317089 252.174712,242.453903 C251.423621,239.761186 247.282069,235.493683 245.921243,236.013699 C245.260873,236.264234 244.722873,236.948466 244.722873,237.535853 C244.722873,238.883264 248.3644,245.266624 250.326521,247.363533 C251.145126,248.230928 251.638821,249.228855 251.423621,249.57834 C250.908828,250.41205 251.718994,252.435272 252.573466,252.435272 C254.546136,252.435272 257.080014,256.711197 257.755153,261.193444 C258.126479,263.68826 258.66659,264.6125 260.267933,265.557793 C261.390351,266.218867 262.998024,268.189456 263.827179,269.930563 C264.662662,271.667461 265.688029,273.332777 266.103661,273.61068 C266.607905,273.960165 266.578367,274.130697 265.989731,274.134907 C265.521354,274.141223 265.320922,274.623344 265.542452,275.200204 C266.078343,276.5813 267.200761,276.547615 267.200761,275.149676 C267.200761,274.412811 267.715554,274.122275 268.776787,274.275964 C269.816922,274.419127 270.357032,274.979144 270.357032,275.903384 C270.357032,276.76657 271.489999,278.057137 273.329751,279.29086 C277.779335,282.250954 280.252029,284.789982 280.78792,286.91847 C281.55378,290.023832 283.568646,290.602797 287.425374,288.86169 C289.244028,288.038506 291.20193,287.065843 291.777907,286.712148 C292.353884,286.352136 293.307517,285.8637 293.879275,285.632114 C298.447008,283.817319 302.763674,281.55409 303.227832,280.733011 C303.535864,280.194047 304.409324,279.751927 305.160415,279.751927 C306.183672,279.751927 306.52968,280.234048 306.52968,281.709884 C306.52968,282.789918 306.922104,284.074169 307.40525,284.558395 C308.109926,285.267892 308.048742,285.57527 307.08034,286.12055 C306.41997,286.491088 306.050754,287.230059 306.255405,287.764813 C306.457947,288.295356 305.932605,290.07436 305.086572,291.729149 C304.246869,293.373412 302.788992,296.739834 301.867006,299.213597 C299.219198,306.228556 295.820298,310.864492 286.606769,320.014256 C273.874081,332.67571 267.171223,340.707543 269.340105,340.707543 C270.437205,340.707543 270.082757,343.389733 268.951901,343.638162 C268.034134,343.833958 268.025695,344.101335 268.890716,345.756124 C270.019463,347.914087 269.973047,349.21097 268.711383,350.731018 C267.525671,352.150011 268.365374,355.202739 270.05533,355.634332 C271.26003,355.952237 271.390838,356.628047 271.291677,362.181908 L271.177747,368.379999 L268.283092,371.175877 C266.641662,372.769612 263.81241,374.538089 261.761677,375.266533 C259.763689,375.965502 257.740384,377.013957 257.259348,377.586606 C256.776202,378.161361 255.168529,379.251922 253.670566,380.011946 C250.683078,381.544626 249.769532,382.976251 250.923596,384.359452 C251.816045,385.439487 251.20842,390.136478 250.058575,391.04598 C249.626065,391.380728 247.653395,392.187069 245.680725,392.824984 C242.661591,393.812384 241.895731,394.429245 240.880913,396.65879 C239.676213,399.332559 239.444134,399.507301 229.730581,404.625358 C223.780924,407.76651 219.865122,408.522323 207.83289,408.867597 C201.642715,409.040235 195.714156,409.046551 194.652923,408.871808 Z M250.421526,360.348423 C249.869526,358.734158 249.103526,363.132916 249.561526,365.283728 C249.819526,366.470144 250.001526,366.231936 250.365526,364.199071 C250.627526,362.753633 250.649526,361.02142 250.421526,360.348423 Z M235,351.264253 C235,350.942253 234.472579,350.512253 233.832869,350.316253 C232.876706,350.024253 232.789937,350.130253 233.337774,350.902253 C234.086371,351.964253 235,352.162253 235,351.264253 Z M246.003922,335.506623 C247.43154,335.506623 249.407598,332.999216 248.926143,331.800455 C248.599591,330.981302 248.007193,330.831457 246.581668,331.16711 C245.532933,331.410858 244.561651,331.894358 244.444427,332.230011 C244.31255,332.571658 243.799696,332.845375 243.293122,332.845375 C242.799107,332.845375 242.256947,333.738451 242.093671,334.821331 C241.842477,336.405693 242.055992,336.815269 243.232417,336.977102 C244.02577,337.08499 244.775165,336.801284 244.898669,336.343757 C245.020079,335.882234 245.52456,335.506623 246.003922,335.506623 Z M415.005765,241.412368 C414.371765,240.743337 414.277765,240.86664 414.615765,241.942112 C414.849765,242.70476 415.083765,243.908101 415.133765,244.599965 C415.191765,245.298679 415.361765,245.056641 415.523765,244.072505 C415.689765,243.083801 415.449765,241.88731 415.005765,241.412368 Z M414.505378,239.97675 C414.505378,238.70275 414.091378,238.70275 413.603378,239.97675 C413.389378,240.52875 413.499378,240.97875 413.861378,240.97875 C414.217378,240.97875 414.505378,240.52875 414.505378,239.97675 Z M305.531211,235.070197 C305.541849,234.046576 305.641851,234.031298 306.205693,234.963251 C307.095074,236.401559 307.769557,235.631115 310.454721,230.072132 C311.659003,227.568734 312.959031,225.532405 313.333507,225.532405 C313.707983,225.532405 314.014373,225.126449 313.999479,224.626642 C313.984585,224.122471 313.173929,224.659381 312.182418,225.80959 C309.922795,228.437394 305.418442,229.172917 302.141776,227.435598 C300.931111,226.796108 299.450228,226.466541 298.852343,226.700075 C297.792745,227.110397 292.764977,222.470272 292.764977,221.077798 C292.764977,220.732953 292.4288,220.449221 292.011769,220.449221 C291.594739,220.449221 291.460694,220.126201 291.701124,219.72461 C291.939427,219.325202 291.798999,219 291.384096,219 C290.975577,219 290.626633,219.731158 290.622378,220.630373 C290.611739,221.950822 290.481949,222.057768 289.926618,221.173831 C289.335116,220.23533 289.235114,220.246242 289.224475,221.298237 C289.22022,221.963918 288.820211,222.688528 288.330839,222.906784 C287.724443,223.173057 287.945724,223.679411 289.04362,224.504419 C289.915979,225.165735 290.633016,226.15007 290.633016,226.689162 C290.633016,227.236985 291.079834,227.48798 291.645804,227.265359 C292.243689,227.025277 293.162858,227.690958 293.937343,228.921922 C294.643741,230.052489 295.696955,231.412224 296.288458,231.944769 C296.875704,232.470766 297.016133,232.732674 296.596975,232.514418 C296.175689,232.307074 295.82249,232.553704 295.82249,233.075336 C295.82249,233.586055 296.279947,234.007289 296.826767,234.007289 C297.50125,234.007289 297.724659,233.437641 297.516144,232.298344 C297.24167,230.831663 297.411886,230.657058 298.69702,231.056467 C300.611955,231.652306 300.488548,231.503892 301.224735,234.114235 C301.656659,235.670401 301.588572,236.458305 301.022603,236.7093 C300.441739,236.953747 300.486421,237.26367 301.199202,237.767842 C302.484336,238.667057 305.509934,236.781324 305.531211,235.070197 Z M198.326602,223.861369 C198.633785,221.150885 198.985152,220.597979 201.127018,219.542055 C204.306153,217.978953 207.100257,218.005975 208.73506,219.62312 C209.454626,220.333998 211.261957,221.140492 212.768416,221.414866 C214.262252,221.693397 215.802376,222.165238 216.189511,222.464555 C216.574542,222.768029 217.99053,223.185826 219.343398,223.404078 C220.689954,223.618173 223.37465,224.083778 225.295597,224.443374 C228.291684,224.992123 229.082786,224.900665 230.675509,223.780304 C232.628016,222.404276 236.131166,222.075858 240.393857,222.84078 C243.61928,223.424864 244.050599,222.861566 245.90001,215.519979 C247.722069,208.2844 247.276022,204.299739 244.595533,203.923514 C243.64032,203.792563 242.695627,204.131373 242.346364,204.736244 C241.441646,206.324288 237.696537,206.91253 236.278445,205.690317 C234.418515,204.07733 231.952634,203.532739 231.952634,204.732087 C231.952634,206.721299 228.274852,207.199375 226.486457,205.436729 C225.407108,204.370412 225.295597,204.40159 224.942126,205.904412 C224.554991,207.544422 222.846548,208.700119 222.846548,207.330327 C222.846548,206.914608 222.192206,205.929356 221.392688,205.143648 C220.597378,204.35794 220.123979,203.245893 220.340691,202.672202 C220.639458,201.905201 220.391187,201.753464 219.343398,202.088118 C218.346105,202.401985 217.950554,202.204519 217.950554,201.398025 C217.950554,200.78484 218.264049,200.464737 218.64908,200.697539 C219.029903,200.930342 219.347606,200.79939 219.347606,200.394065 C219.347606,199.98874 218.865791,199.658243 218.264049,199.658243 C217.422451,199.658243 217.220468,198.963994 217.342499,196.556984 C217.435075,194.852539 217.292004,193.243709 217.024796,192.983885 C216.753381,192.715746 216.538774,192.871641 216.538774,193.314381 C216.538774,193.757121 216.065375,194.116717 215.495193,194.116717 C214.920802,194.116717 214.447404,193.65527 214.447404,193.081578 C214.447404,192.51828 214.760899,192.04644 215.14593,192.04644 C215.533065,192.04644 215.844456,191.52887 215.844456,190.899057 C215.844456,189.986555 215.577248,190.071777 214.468444,191.331404 C213.698382,192.19402 212.10145,193.102364 210.897966,193.34556 L208.71402,193.786221 L210.531871,195.719312 C211.55862,196.81473 212.698985,197.440386 213.157655,197.166012 C213.599494,196.891638 213.778334,196.968545 213.553206,197.323985 C213.328079,197.679424 214.415844,199.333983 215.966487,200.998935 C218.38608,203.582625 218.62804,204.104352 217.651787,204.642707 C217.024796,204.983596 216.696573,205.561445 216.917493,205.916884 C217.14262,206.272323 217.031108,206.567483 216.660805,206.567483 C216.290502,206.567483 215.808688,206.106036 215.591976,205.542737 C215.366849,204.958653 214.729339,204.694672 214.117077,204.929553 C213.353327,205.218477 213.037728,204.90461 213.037728,203.859078 C213.037728,202.08396 211.045245,201.134044 210.176296,202.493443 C209.841761,203.025563 209.555618,204.31429 209.545098,205.359821 C209.545098,206.405353 209.221083,207.257576 208.836052,207.257576 C208.455229,207.257576 208.137526,207.014381 208.137526,206.715063 C208.137526,206.419903 207.192832,205.821269 206.041948,205.395157 C204.623856,204.867195 203.93585,204.137609 203.93585,203.166907 C203.93585,202.370806 203.483491,201.720207 202.928037,201.720207 C201.469969,201.720207 200.796691,200.2839 201.920223,199.579257 C202.622957,199.14691 202.650309,198.974387 202.012799,198.97023 C201.530985,198.966072 201.139642,198.350809 201.139642,197.614988 C201.139642,196.875009 200.815627,196.076829 200.426388,195.83987 C199.100872,195.027141 197.678572,190.618447 198.08885,188.587662 C198.417074,186.993382 198.103578,186.222225 196.595015,184.84204 C195.557746,183.887966 193.626279,182.757212 192.315491,182.324865 C191.004703,181.902911 189.931666,181.219054 189.931666,180.817886 C189.931666,180.422953 189.22262,179.412757 188.359982,178.568849 C185.755238,176.07246 184.322418,174.09364 184.322418,173.00238 C184.322418,171.428886 182.950614,171.784325 182.266816,173.534499 C181.799729,174.738004 182.041688,175.488376 183.346165,176.858168 C184.26561,177.833028 185.020944,179.115519 185.020944,179.705839 C185.020944,181.374948 187.764552,184.430479 189.279428,184.430479 C190.020034,184.430479 190.625984,184.84204 190.625984,185.334666 C190.625984,185.837685 192.054596,187.228263 193.784079,188.440082 C196.980046,190.668333 197.4303,191.576678 196.254168,193.41831 C195.698713,194.291319 195.37049,194.204018 194.122822,192.879955 C193.31068,192.021496 192.326011,191.51432 191.93046,191.757515 C191.442333,192.052675 191.457061,192.437215 191.97254,192.944391 C192.389131,193.36011 192.738394,194.228961 192.738394,194.873325 C192.738394,196.507098 189.193164,200.344179 187.678288,200.344179 C186.758843,200.344179 186.434828,200.886691 186.434828,202.420692 C186.434828,204.719615 185.115624,205.166512 183.384036,203.455831 C182.803334,202.88214 182.119536,202.420692 181.862849,202.420692 C180.79402,202.420692 177.326638,199.487799 177.326638,198.579454 C177.326638,197.351006 180.686716,196.467605 181.662969,197.432071 C182.540335,198.294687 187.261697,197.681502 188.017031,196.604792 C188.864941,195.401287 187.924456,192.749004 186.081357,191.119388 C182.285752,187.774933 180.693028,186.506992 180.251189,186.490363 C179.98819,186.47997 178.854137,185.236972 177.724293,183.723757 C176.594448,182.206385 175.254204,180.97378 174.749245,180.97378 C174.244287,180.97378 173.8298,180.659913 173.8298,180.27953 C173.8298,179.899148 174.164335,179.589438 174.585134,179.589438 C175.601363,179.589438 174.620902,176.687723 173.270137,175.712864 C172.464308,175.135015 171.666894,175.205687 170.044715,176.001788 C165.914574,178.026337 165.441176,178.209253 164.496482,178.209253 C163.972588,178.209253 162.539768,177.712469 161.306828,177.107599 C158.569531,175.758593 157.027304,176.240826 157.027304,178.452448 C157.027304,180.445818 156.185706,181.181639 152.476365,182.445423 C148.783855,183.698814 144.97773,187.068212 145.484793,188.627156 C145.901384,189.926276 141.931147,194.386934 140.912814,193.767514 C140.588799,193.570048 139.854505,193.879758 139.269595,194.457606 C138.061902,195.650718 136.161996,195.787905 133.675075,194.848382 C131.362785,193.981609 129,194.680016 129,196.234802 C129,197.772961 129.677486,198.228172 132.267503,198.421481 C133.36158,198.502546 134.645016,198.943208 135.122622,199.396341 C135.697013,199.955482 136.62277,200.030311 137.923038,199.635379 C145.581577,197.296963 147.287916,197.220055 160.524142,198.702091 C162.634448,198.941129 166.047126,199.103259 168.085896,199.061688 C170.680121,199.011801 171.906749,199.284097 172.169749,199.965875 C172.380148,200.508388 172.996618,200.778605 173.545761,200.570745 C174.208519,200.317157 174.536742,200.676754 174.536742,201.672399 C174.536742,202.485129 174.073863,203.320723 173.514201,203.53066 C172.712579,203.844528 172.662083,204.235303 173.272241,205.413865 C175.33626,209.37774 175.363611,209.508691 174.423126,210.103168 C173.90344,210.427429 172.969266,210.69141 172.338068,210.701803 C171.70687,210.701803 170.997824,211.198586 170.760073,211.786828 C170.524425,212.406248 170.642249,212.680622 171.04832,212.427034 C171.429143,212.194232 172.805155,213.117127 174.099111,214.472369 C175.403587,215.835925 177.135174,216.939657 177.983084,216.939657 C180.777188,216.939657 185.748926,219.62312 185.748926,221.125942 C185.748926,221.99895 186.46218,222.776344 187.669872,223.237791 C188.732389,223.638959 191.019431,224.688648 192.751018,225.567893 C197.114701,227.798222 197.905803,227.56542 198.326602,223.861369 Z M211.649344,210.678195 C210.579018,210.529805 209.87155,210.082731 210.01953,209.666096 C210.321573,208.811899 210.420902,208.806192 214.726528,209.494876 C220.680212,210.459414 217.828039,211.557124 211.649344,210.678195 Z M237,210.358342 C237,209.436701 238.744765,207.817602 239.232979,208.285129 C239.447073,208.490151 240.379482,208.18166 241.313892,207.597251 C243.046652,206.506994 243.618903,206.997514 242.196279,208.356024 C241.756086,208.777565 241.664045,209.118629 241.990188,209.118629 C242.31233,209.118629 242.006196,209.544002 241.291882,210.059431 C239.78122,211.153521 237,211.34513 237,210.358342 Z M220.594001,208.97775 C221.092001,207.70375 221.508001,207.70375 221.508001,208.97775 C221.508001,209.52975 221.216001,209.97775 220.864001,209.97775 C220.506001,209.97775 220.386001,209.53375 220.594001,208.97775 Z M182.445512,205.98675 C182.445512,205.13675 182.919512,205.13675 183.445512,205.98675 C183.669512,206.35875 183.537512,206.65075 183.147512,206.65075 C182.763512,206.65075 182.445512,206.36275 182.445512,205.98675 Z M167.023134,192.821392 C166.976554,192.499533 167.001961,191.939417 167.084534,191.556949 C167.167108,191.174481 167.224274,189.57146 167.224274,187.985159 C167.224274,185.755142 167.48258,185.138595 168.386651,185.209655 C169.297073,185.280714 169.498213,184.756127 169.333067,182.735109 C169.172155,180.73499 169.441047,180.016034 170.588603,179.407848 C171.861078,178.728601 172.036811,178.831011 171.994465,180.225033 C171.969058,181.102828 171.693814,182.4446 171.388928,183.199086 C171.073456,183.964022 171.088277,185.286984 171.410101,186.137609 C171.854726,187.312183 171.172968,191.34168 170.359939,192.332334 C169.942838,192.836021 167.084534,193.249839 167.023134,192.821392 Z M152.252524,188.416639 C151.524092,187.289191 152.4539,186 153.987834,186 C154.703836,186 155.128962,186.551831 154.964878,187.317734 C154.649141,188.909006 152.998359,189.57263 152.252524,188.416639 Z M156.34725,187.150739 C156.34725,186.764739 156.64925,186.446739 157.01525,186.446739 C157.86525,186.446739 157.86525,186.914739 157.01525,187.442739 C156.64525,187.668739 156.34725,187.536739 156.34725,187.150739 Z M214.104395,201.309346 C213.558395,200.834422 213.368395,200.899264 213.368395,201.552941 C213.368395,202.716591 214.260395,203.499951 214.588395,202.627214 C214.730395,202.259192 214.510395,201.6651 214.104395,201.309346 Z M292.170876,191.130818 C293.186158,190.362832 293.23817,189.924289 292.495433,187.924104 C292.023161,186.655537 291.399012,185.615869 291.099421,185.615869 C290.797749,185.615869 290.554331,185.209414 290.554331,184.713112 C290.554331,184.212531 289.930182,182.614522 289.16872,181.155563 C288.407259,179.696605 287.781029,178.05795 287.781029,177.510306 C287.781029,176.973358 287.308757,176.130499 286.744942,175.640614 C286.172806,175.155008 285.704694,173.995542 285.704694,173.064975 C285.704694,171.837054 285.317722,171.377118 284.285796,171.377118 C283.513932,171.377118 282.090873,170.572766 281.146328,169.595135 C280.187219,168.613226 279.130327,167.813152 278.799528,167.813152 C278.464568,167.813152 277.617806,167.070838 276.927082,166.16808 C275.231477,163.964668 273.533793,163.389213 272.497706,164.679172 C271.867315,165.451436 271.842349,166.135992 272.385359,167.306153 C272.791056,168.168265 273.309099,169.676426 273.527551,170.658335 C273.741842,171.635966 274.15378,172.767621 274.44713,173.165519 C275.533149,174.675819 282.463282,179.912667 283.370378,179.912667 C283.894663,179.912667 284.321165,180.393995 284.321165,180.978007 C284.321165,181.562018 283.838489,182.047624 283.243468,182.047624 C282.37382,182.047624 282.217783,182.826306 282.380062,186.137842 C282.567306,189.898618 282.729585,190.25801 284.321165,190.471933 C285.276112,190.602427 286.353809,191.008881 286.707493,191.359716 C287.666602,192.311676 290.793588,192.174765 292.170876,191.130818 Z M224.872109,189.0115 C224.872109,188.6455 224.400109,188.3435 223.836109,188.3435 C223.266109,188.3435 222.976109,188.6455 223.208109,189.0115 C223.740109,189.8715 224.872109,189.8715 224.872109,189.0115 Z M233.78558,184.255925 C236.623236,182.465331 243.196001,181.226662 243.196001,182.482184 C243.196001,182.882434 243.529341,183.010936 243.937467,182.760253 C244.345594,182.50957 245.153301,182.688629 245.717413,183.15629 C246.300757,183.63027 248.815758,183.998922 251.418368,183.998922 C255.279547,183.998922 256.36931,183.731386 257.788138,182.414773 C259.920654,180.445121 259.290301,178.964194 255.486815,176.994541 C254.00602,176.227746 251.038019,174.685729 248.881999,173.548176 C244.687481,171.346799 243.206685,171.32152 240.232274,173.398608 C237.926678,175.014356 236.080492,175.100726 236.080492,173.605053 C236.080492,172.987825 235.418087,172.313719 234.599697,172.103061 C233.586858,171.839739 233.227878,171.3152 233.469335,170.41569 C233.712929,169.495115 233.430873,169.10961 232.5206,169.10961 C231.804776,169.10961 231.059036,168.713573 230.856041,168.235379 C230.381674,167.093613 227.586753,170.386198 227.565385,172.096742 C227.548291,172.775061 226.900843,173.870482 226.114505,174.529842 C225.33244,175.197628 224.695677,176.596398 224.695677,177.677074 C224.695677,178.747217 224.402936,179.625661 224.063187,179.625661 C222.862311,179.625661 222.608033,182.747613 223.665744,184.346508 C225.167907,186.585803 230.155174,186.545778 233.78558,184.255925 Z M246.901141,168.033678 C247.129643,167.493697 246.947774,166.726243 246.502428,166.320195 C245.467172,165.369913 242,166.709236 242,168.059189 C242,169.330483 246.367191,169.304972 246.901141,168.033678 Z M195.255416,139.935361 C196.896497,138.645651 199.237021,138.572323 200.393712,139.771452 C200.990848,140.388269 201.408426,140.424933 201.748752,139.898697 C202.024353,139.47814 202.753027,138.94112 203.385657,138.697412 C204.114331,138.419197 204.655094,137.144584 204.884762,135.164728 C205.083111,133.458774 205.801345,130.378998 206.486173,128.315031 C207.525942,125.181338 208.077145,124.486878 209.856027,124.018873 C211.7226,123.529301 211.482492,123.419309 207.807807,123.09796 C205.375416,122.886603 203.52137,123.024632 203.352251,123.440876 C202.863685,124.652945 201.548315,125.757178 199.988661,126.264004 C198.422744,126.775143 197.332866,129.028901 198.061539,130.249596 C198.539666,131.034637 197.251438,133.924623 196.059253,134.742014 C195.641675,135.037483 194.595643,135.27472 193.735432,135.283347 C192.119406,135.294131 191.641279,136.305626 192.868958,137.08851 C193.912903,137.757089 193.695762,138.878575 192.518193,138.878575 C191.948199,138.878575 191.478424,138.557226 191.478424,138.162549 C191.478424,137.767872 190.697553,137.446523 189.739212,137.446523 C188.780871,137.446523 188,137.767872 188,138.162549 C188,138.557226 188.469775,138.878575 189.039769,138.878575 C189.616026,138.878575 190.089977,139.372461 190.089977,139.956928 C190.081626,141.35663 193.447304,141.345847 195.255416,139.935361 Z M200,131.073745 C200,130.24935 200.396741,129.164394 200.882619,128.671038 C202.256358,127.263586 202.389188,128.164868 201.137792,130.490688 C200.13283,132.355188 200.005243,132.423532 200,131.073745 Z M187.217365,133.333343 C188.212459,132.773133 188.242998,132.319523 187.39806,130.890649 C186.782171,129.838273 186.553121,129.711262 186.825436,130.548173 C187.110475,131.400961 186.695641,132.364884 185.799802,132.984062 C184.12774,134.104481 185.308618,134.4084 187.217365,133.333343 Z M211.871284,129.907677 C212.485293,128.190339 210.76692,126.239442 209.581542,127.301902 C208.831086,127.956781 208.816162,128.442215 209.483471,129.593977 C210.506819,131.357111 211.319102,131.462441 211.871284,129.907677 Z M239.862812,125.238784 C239.862812,124.334784 238.686812,123.744784 238.266812,124.428784 C237.866812,125.072784 238.442812,125.868784 239.306812,125.868784 C239.614812,125.868784 239.862812,125.586784 239.862812,125.238784 Z M218.548594,121.979737 C219.036594,120.705737 218.694594,120.705737 217.640594,121.979737 C217.158594,122.555737 217.098594,122.975737 217.490594,122.975737 C217.862594,122.979737 218.334594,122.531737 218.548594,121.979737 Z M205.63428,117.807616 C206.230334,116.989483 206.051086,110 205.433436,110 C205.217474,110 204.05776,110.848434 202.850535,111.878676 C200.00416,114.310854 199.148952,117.199571 200.926316,118.447982 C202.282555,119.40146 204.712124,119.076227 205.63428,117.807616 Z M227,118.854441 C227,117.825486 224.745549,116 223.455235,116 C222.642194,116 222.98276,118.079698 223.966084,119.062652 C225.289975,120.403925 227,120.28045 227,118.854441 Z M209.417548,107.089356 C212.328885,104.889502 212.871012,103 210.57101,103 C209.066896,103 206.674616,104.859836 206.674616,106.030505 C206.674616,106.381934 206.466993,107.217149 206.213231,107.869803 C205.548837,109.579026 206.388558,109.373645 209.417548,107.089356 Z M231.682513,106.021213 C231.408522,105.659213 230.559636,105.377213 229.801266,105.401213 C228.67105,105.445213 228.719977,105.553213 230.053241,106.021213 C232.232943,106.793213 232.257407,106.793213 231.682513,106.021213 Z M235,101.524612 C235,100.170862 234.587154,100 231.395623,100 C228.167728,100 227.816916,100.148956 228.062912,101.454515 C228.285378,102.652737 228.933524,102.930935 231.667289,102.99008 C234.604267,103.049224 235,102.878363 235,101.524612 Z M371.617065,88.5293196 C371.819065,88.2514916 371.559065,87.7098144 371.047065,87.3393771 C370.279065,86.7854685 370.169065,86.8780778 370.467065,87.8513494 C370.855065,89.1688482 371.075065,89.2929097 371.617065,88.5293196 Z M260.025584,68.588003 C259.371584,67.934003 259.289584,68.016003 259.653584,68.960003 C259.903584,69.620003 260.275584,69.986003 260.479584,69.780003 C260.689584,69.580003 260.479584,69.038003 260.025584,68.588003 Z M341.998095,48.743977 C341.998095,48.611977 341.476095,48.083977 340.836095,47.581977 C339.782095,46.755977 339.758095,46.781977 340.588095,47.835977 C341.450095,48.937977 341.998095,49.295977 341.998095,48.743977 Z M291,19.5568517 C291,19.0689259 282.519107,16.656512 282.140164,17.0414097 C281.724152,17.4690737 281.948634,17.568214 286.88724,19.2147205 C289.628394,20.1322542 291,20.245002 291,19.5568517 Z M277.377909,386.652993 C277.224868,386.368481 277.057152,384.82091 277.008934,383.210832 C276.933461,380.822657 277.312919,379.906616 279.042489,378.2017 C280.889461,376.391171 281.103299,375.781195 280.725938,373.485702 C280.224887,370.472464 281.862214,366.40955 283.562434,366.40955 C285.503746,366.40955 290.902104,363.361825 292.811969,361.199967 C300.503842,352.433987 300.560446,352.380102 301.57932,353.507372 C302.939916,354.985971 303.524825,360.404627 302.424189,361.348689 C301.946199,361.753903 301.348711,361.874605 301.097137,361.622424 C300.84137,361.359466 300.635918,362.01255 300.635918,363.064381 C300.635918,364.120523 300.319354,364.980525 299.935704,364.980525 C299.549957,364.980525 299.239683,365.295212 299.239683,365.685338 C299.239683,366.51732 294.57089,374.272421 290.512164,380.191127 C288.388461,383.294892 286.975454,384.564418 284.625334,385.484771 C281.080238,386.88362 277.788813,387.411691 277.377909,386.652993 Z M314.34775,369.153773 C314.34775,368.763773 314.64375,368.445773 315.01175,368.445773 C315.86575,368.445773 315.86575,368.917773 315.01175,369.441773 C314.64575,369.667773 314.34775,369.543773 314.34775,369.153773 Z M148.3435,326.152884 C148.3435,325.762884 148.6515,325.444884 149.0115,325.444884 C149.8715,325.444884 149.8715,325.916884 149.0115,326.440884 C148.6475,326.670884 148.3435,326.542884 148.3435,326.152884 Z M31.0624438,319.95368 C23.1920586,307.751366 13.4162788,285.724689 8.66555176,269.497174 C1.10564374,243.635363 -1.72905595,214.092585 1.03972049,189.905477 C2.19231406,179.876265 3.4491089,179.253267 3.25559227,188.817871 C2.90683702,206.506791 3.03655696,212.931063 3.77447203,213.811708 C4.20616298,214.322777 4.9270656,216.95204 5.37789556,219.648882 C5.8244724,222.349949 6.48370489,225.099587 6.83671325,225.769046 C7.1854685,226.438505 7.48531295,228.50179 7.49169262,230.336995 C7.50232541,232.182759 7.94252258,235.578626 8.4784148,237.905893 C9.01856012,240.226825 9.65652704,243.700831 9.90533414,245.639516 C10.6942866,251.837819 16.5082918,265.849996 20.2680435,270.646025 C21.3525873,272.048298 23.7151914,276.238224 25.5014988,279.967765 C27.298439,283.695194 29.0379621,286.746828 29.3803377,286.746828 C30.1225059,286.746828 30.673284,288.06674 31.9768631,292.934572 C33.4207949,298.302914 33.2336579,299.863577 30.8242695,302.839185 L28.6700679,305.500126 L30.5180454,311.058535 C32.5680457,317.246279 34.3543531,324 33.9396746,324 C33.7886891,323.995776 32.4957428,322.179579 31.0624438,319.95368 Z M313.536625,274.991629 C314.864848,274.141629 316.419496,274.141629 315.895889,274.991629 C315.669464,275.353629 314.816328,275.655629 314.005647,275.645629 C312.80681,275.641629 312.717857,275.517629 313.536625,274.991629 Z M273.060566,270.85739 C273.060566,269.68539 274.496566,269.89139 274.906566,271.12739 C275.052566,271.56139 274.698566,271.91939 274.114566,271.91939 C273.538566,271.91739 273.060566,271.43339 273.060566,270.85739 Z M60.2599657,245.257123 C60.0199657,244.867123 59.9819657,244.387123 60.1759657,244.193123 C60.6499657,243.715123 61.9479657,244.555123 61.9479657,245.335123 C61.9539657,246.189123 60.8019657,246.135123 60.2599657,245.257123 Z M62.4448516,242.987 C62.4448516,242.131 62.9188516,242.131 63.4448516,242.987 C63.6688516,243.349 63.5428516,243.655 63.1468516,243.655 C62.7628516,243.655 62.4448516,243.353 62.4448516,242.987 Z M59.1059569,238.368179 C57.7871946,236.527156 57.6807475,236 58.6111747,236 C58.9679699,236 59.2656277,236.350096 59.2656277,236.782686 C59.2656277,237.215276 59.76041,238.12271 60.357697,238.796745 C60.9549839,239.468769 61.1757633,240.005986 60.8485367,239.99995 C60.5213102,239.983853 59.7367551,239.257504 59.1059569,238.368179 Z M402.880623,216.777808 C402.616623,216.523124 402.416623,215.566131 402.434623,214.661232 L402.478623,213 L403.116623,214.545467 C403.816623,216.222134 403.670623,217.541859 402.880623,216.777808 Z M91.6817582,213.462518 C91.3937582,212.998518 91.3457582,212.442518 91.5637582,212.222518 C92.1597582,211.626518 92.8097582,212.506518 92.4857582,213.466518 C92.2597582,214.140518 92.1017582,214.140518 91.6817582,213.462518 Z M97.0053201,212.351342 C97.8932486,211.451038 98.7570787,210.858433 98.9331814,211.029377 C99.4170005,211.525114 97.1462023,214 96.2137848,214 C95.741088,213.996201 96.0729026,213.310527 97.0053201,212.351342 Z M89.1274494,210.00575 C89.1274494,209.64375 89.5954494,209.34175 90.1674494,209.34175 C90.7394494,209.34175 91.0214494,209.64375 90.7934494,210.00575 C90.2594494,210.87575 89.1274494,210.87575 89.1274494,210.00575 Z M94.4454037,193.98675 C94.4454037,193.13675 94.9194037,193.13675 95.4454037,193.98675 C95.6694037,194.35275 95.5374037,194.65075 95.1534037,194.65075 C94.7634037,194.65075 94.4454037,194.35275 94.4454037,193.98675 Z M83.4447407,166.98625 C83.4447407,166.13225 83.9187407,166.13225 84.4447407,166.98625 C84.6687407,167.34825 84.5427407,167.65425 84.1527407,167.65425 C83.7567407,167.65425 83.4447407,167.35225 83.4447407,166.98625 Z M79.4172474,161.303388 C78.8112474,160.317388 79.2952474,159.961388 80.3592474,160.629388 C80.9352474,160.975388 81.0032474,161.323388 80.5552474,161.595388 C80.1792474,161.831388 79.6652474,161.699388 79.4172474,161.303388 Z M10.7645,154.997234 C10.7645,154.109332 10.9165,153.744068 11.1005,154.190933 C11.2805,154.635856 11.2805,155.362499 11.1005,155.809364 C10.9145,156.254287 10.7645,155.894852 10.7645,154.997234 Z M11.114432,149.519662 C10.620432,148.180942 11.948432,142 12.736432,142 C13.278432,142 12.936432,145.040658 11.944432,148.880397 C11.622432,150.146473 11.408432,150.308365 11.114432,149.519662 Z M19.336,123.998 C19.336,123.636 19.634,123.334 20,123.334 C20.366,123.334 20.664,123.636 20.664,123.998 C20.664,124.364 20.366,124.666 20,124.666 C19.634,124.666 19.336,124.364 19.336,123.998 Z M21,120.588626 C21,119.660798 23.5790314,115.676728 23.9457299,116.021031 C24.3852823,116.418991 22.0296698,121 21.3836977,121 C21.1772781,120.993293 21,120.812199 21,120.588626 Z M165.157976,115.165406 C165.147976,114.432007 165.459976,113.609569 165.855976,113.328394 C167.021976,112.475495 167.193976,113.375256 166.157976,114.975613 C165.299976,116.29948 165.177976,116.315882 165.157976,115.165406 Z M23.334,114.411175 C23.334,114.045175 23.636,113.561175 24.002,113.337175 C24.364,113.107175 24.666,113.219175 24.666,113.587175 C24.666,113.955175 24.364,114.441175 24.002,114.667175 C23.638,114.891175 23.334,114.779175 23.334,114.411175 Z M159.287938,107.552204 C159.287938,106.703016 159.683938,106 160.165938,106 C160.839938,106 160.883938,106.36891 160.331938,107.552204 C159.437938,109.482599 159.287938,109.482599 159.287938,107.552204 Z M70.092843,103.16116 C70.1749487,102.677036 70.4738979,101.886372 70.7770575,101.400135 C71.1265333,100.837791 70.9265321,100.518566 70.2317912,100.518566 C69.6296824,100.518566 69.1370479,100.059811 69.1370479,99.486897 C69.1370479,98.8209634 69.5433661,98.613784 70.2928442,98.9097545 C71.4591668,99.3579385 71.4233771,98.4657988 70.092843,93.9649329 C69.825473,93.0770214 70.1602118,92.5717574 71.1770599,92.307498 C71.9833804,92.0960905 72.6423316,91.7092148 72.6423316,91.4449554 C72.6423316,91.1870382 73.2086507,90.9291211 73.9160233,90.8826114 C76.0486674,90.7177136 81.0697494,88.2759568 80.8234322,87.5170039 C80.6950104,87.1301282 79.8676371,86.7643932 78.9876319,86.7221117 C77.1223579,86.6248642 76.0212988,85.1894072 76.534986,83.5319724 C76.7349872,82.8871794 76.5707757,82.1493672 76.1707733,81.9020205 C75.7644552,81.6483314 75.4402427,82.030979 75.4402427,82.7645631 C75.4402427,83.4875768 74.9770821,84.6904855 74.4128683,85.4430962 C72.8044378,87.5804261 73.065492,85.1598102 74.7412913,82.3924859 C76.6697236,79.2277155 76.5097227,78.2679254 73.9539182,77.7520911 C70.5096875,77.0607885 70.3307391,77.2045456 72.3918038,78.9803687 C74.2781307,80.6103206 74.288657,80.6885414 73.1160186,82.5003037 C72.4528568,83.5171738 71.4402193,84.3480053 70.8760055,84.3480053 C70.3054758,84.3480053 69.8381047,84.6312914 69.8381047,84.9716575 C69.8381047,85.3120236 69.1959956,85.7623216 68.4086226,85.9673869 C67.6317759,86.1745662 67.0422988,86.6079516 67.1075624,86.9335192 C67.410722,88.4915925 66.0443982,92.0939765 65.1538667,92.0939765 C64.598074,92.0939765 64.3159671,92.3730344 64.5222841,92.7028301 C64.728601,93.038968 65.7665019,93.1721548 66.8359818,93.011485 C68.6149396,92.728199 68.6802031,92.7937353 67.5601966,93.7091298 C66.8865084,94.2566753 66.332821,95.1086475 66.332821,95.5885426 C66.332821,96.6878616 62.9770118,95.9500494 61.3685814,94.4997939 C60.7664726,93.9522485 59.7243612,93.5040645 59.06541,93.5040645 C58.0632988,93.5040645 58.0022459,93.2609459 58.6654076,92.0115275 C59.1033049,91.1912664 60.0633106,90.364663 60.7938412,90.1680541 C61.5243718,89.9777873 62.1243753,89.5232611 62.1243753,89.1554121 C62.1243753,88.8002475 61.8570053,88.6607185 61.5285823,88.8657838 C61.2001593,89.0666209 60.5727872,88.4535392 60.1412058,87.4979772 C59.7096243,86.5381871 59.0780416,85.7644356 58.7285659,85.7644356 C57.6696123,85.7644356 54.4359092,88.618437 54.6064365,89.4027589 C54.6948581,89.8150035 54.3180138,90.3160393 53.7790632,90.5126483 C53.0948487,90.7663373 52.9306372,90.5168764 53.2295863,89.7283264 C53.4759036,89.0941039 53.3622187,88.5782696 52.9937955,88.5782696 C52.6253723,88.5782696 52.3158968,88.0518649 52.3158968,87.407072 C52.3158968,86.3288937 52.2232646,86.3288937 51.0316787,87.407072 C50.3285167,88.0518649 49.4127219,88.5782696 49.0064037,88.5782696 C48.595875,88.5782696 46.7137587,89.9714451 44.8274318,91.6690474 C42.0105732,94.2080515 41.0400412,94.6942888 39.4210844,94.389862 C37.8526541,94.0896633 37.0968602,94.4258013 35.7263259,96.0472969 L34,98.0810371 L35.2336914,95.8105205 C35.9115901,94.5716725 39.1705566,89.9164791 42.4653127,85.4769214 C73.5833898,43.5738391 118.966813,14.7315127 169.79448,4.55858337 C189.613543,0.584122205 213.422104,-1.06274229 225.217962,0.708852635 C228.620087,1.22045881 230.683257,1.75109165 229.792726,1.90119098 C228.897984,2.04494809 227.994821,2.61363429 227.784293,3.16540789 C227.559029,3.75312076 226.436917,4.16113725 225.064277,4.16113725 C222.500052,4.16113725 221.198991,5.27102667 223.163213,5.786861 C224.190588,6.05957668 224.156903,6.12299893 222.963212,6.18853526 C222.175839,6.23927306 221.15478,6.64728956 220.69583,7.10815793 C220.125301,7.67684412 215.428431,8.00029761 205.662058,8.12925619 C188.741959,8.36180445 187.569321,8.49076303 182.651397,10.6746026 C180.554543,11.6026816 177.20926,12.5582435 175.213459,12.7950199 C173.213447,13.0317963 171.002908,13.5391743 170.299746,13.9260501 C169.600794,14.3086977 168.089206,14.824532 166.954463,15.0718788 C165.421822,15.3974463 165.146031,15.670162 165.874457,16.12046 C166.409197,16.4502557 167.101832,16.5792143 167.407097,16.3889476 C167.706046,16.202909 169.061844,16.3530083 170.413431,16.7250855 C171.889229,17.1373301 173.023972,17.1479005 173.266079,16.767367 C173.487133,16.4122024 173.266079,16.1225741 172.783971,16.1225741 C172.228178,16.1225741 172.146072,15.8794555 172.558706,15.4777812 C173.756608,14.317154 178.120844,14.3784622 179.81138,15.5665724 C181.337705,16.6405225 181.358758,16.7483403 180.135593,17.3783347 C178.830322,18.0548387 173.998715,19.215466 169.280792,19.9701908 C167.369202,20.2851879 166.613408,20.7967941 166.314459,22.0081591 C165.933404,23.5260651 165.554455,23.638111 160.809164,23.638111 C155.345974,23.638111 148.89541,25.1348762 149.280675,26.3166442 C149.598572,27.2827765 153.135435,27.6485115 154.183862,26.8219081 C157.040721,24.5513915 164.181815,24.1010935 163.362863,26.2489938 C162.941808,27.352541 164.931293,28.3609548 165.55235,27.3588832 C165.777614,26.986806 166.569198,26.6823792 167.324991,26.6823792 C168.101838,26.6823792 168.687105,26.198256 168.687105,25.551349 C168.687105,24.8029664 169.06816,24.5598478 169.792374,24.8452479 C170.40501,25.0777962 171.371331,25.2744052 171.946071,25.2744052 C172.85555,25.2744052 172.85555,25.4075919 171.914492,26.3483553 C170.207114,28.0628702 171.190277,29.2446382 174.053452,28.9085002 C175.807146,28.7013209 176.432413,28.8577624 176.09978,29.4031938 C175.767146,29.9486252 176.623993,30.198086 178.834533,30.198086 C181.045072,30.198086 182.175605,30.5278817 182.457712,31.2466673 C182.678766,31.8238098 183.299822,32.3037048 183.834562,32.3037048 C184.708251,32.3037048 185.108254,33.1662475 184.636672,34.0330182 C184.539829,34.2084865 185.08299,34.8067697 185.838784,35.3585433 C187.021949,36.2253141 187.097739,36.6227602 186.388261,38.1871758 C185.931416,39.178677 184.784041,40.1955471 183.845088,40.4323235 L182.131394,40.8635949 L183.642982,42.3857289 C184.480881,43.2229027 185.847205,43.964943 186.685105,44.0431638 C187.523005,44.1150423 189.188277,44.6773863 190.386179,45.2968103 C192.097768,46.1847218 192.508297,46.808374 192.323033,48.2121199 C192.194611,49.1930507 191.634608,50.2860275 191.078815,50.6327358 C190.31881,51.1232013 190.291442,51.2775287 190.986183,51.283871 C191.489344,51.2880991 191.706187,51.6200089 191.468291,52.0068846 C191.2325,52.3895322 191.529344,52.7087576 192.127242,52.7087576 C192.733561,52.7087576 193.221985,53.1844245 193.221985,53.761567 C193.221985,54.3344813 192.790404,54.8143764 192.255664,54.8143764 C190.790392,54.8143764 184.807199,57.6112977 184.807199,58.2983721 C184.807199,58.63451 184.097721,58.7676968 183.228243,58.6133693 C182.358764,58.4526996 182.045078,58.4992092 182.525081,58.7317575 C183.16719,59.0404125 183.198769,59.505509 182.642976,60.5583184 C182.226131,61.3320699 181.701918,61.786596 181.480864,61.5646181 C181.25981,61.3468684 180.72507,61.6534093 180.293489,62.2516925 C179.855591,62.8457476 178.935586,63.418662 178.236634,63.5222516 C176.75031,63.7400014 175.676619,65.2367665 176.143991,66.4481316 C176.426097,67.192286 174.977668,67.8941589 172.525022,68.2091561 C172.143967,68.2598939 171.383963,68.6679104 170.859749,69.1118662 C170.320799,69.5515938 169.45132,69.9215569 168.931317,69.9278992 C167.8471,69.9384695 162.367068,75.0524172 162.367068,76.0587169 C162.367068,76.4138815 161.69338,76.5026727 160.872322,76.2447555 C159.920738,75.9361006 159.545999,76.033348 159.844948,76.5026727 C160.20916,77.1009559 154.720707,78.5469833 153.261751,78.2319861 C147.196453,76.9466285 144.764859,76.8599514 138.710087,77.6907829 C136.232178,78.0374912 134.712169,77.9339015 134.042691,77.3757857 C133.27216,76.7352209 132.480577,76.7880728 130.533197,77.6019917 C129.150031,78.1791342 128.015288,78.9444294 128.015288,79.2890236 C128.015288,79.6293897 127.034229,79.9507292 125.830012,79.9866684 C124.63211,80.0226077 121.512092,81.1790068 118.897339,82.5510415 C113.280464,85.5192029 112.229932,85.6777586 112.935199,83.4791205 C113.213096,82.6060075 113.505729,80.8872644 113.598361,79.6547586 C113.798362,76.7901869 116.137323,73.7395765 122.598414,67.9427827 C128.64266,62.5074956 137.129025,58.070052 137.129025,60.3405686 C137.129025,60.6703644 137.924819,60.7950948 138.901667,60.6090562 C140.552203,60.2898308 140.581677,60.2010397 139.425881,59.2983296 C138.238505,58.3744788 138.249032,58.2772314 139.585882,57.224422 C140.356412,56.6155683 141.846948,56.239263 142.901691,56.3935904 C144.31012,56.5944276 144.937492,56.3111415 145.234336,55.36615 C145.476442,54.5923985 148.061721,52.9349636 151.545952,51.2944413 C158.324939,48.1254428 161.049165,45.8084165 160.493373,43.6753147 C160.190213,42.5400564 160.718637,41.9354309 162.975492,40.7748037 C164.548133,39.9693411 166.074458,39.3604875 166.373407,39.4281379 C166.676567,39.4957883 167.46394,39.3097497 168.127101,39.0158932 C168.908159,38.6755271 170.238693,39.0476044 171.878702,40.0581322 C173.929241,41.3286914 174.541876,41.4513077 175.009247,40.6881266 C176.299781,38.5930782 170.743959,37.1639634 159.034417,36.5910491 C156.952299,36.4832313 157.040721,35.0012646 159.276523,32.33753 C160.62811,30.7223767 160.817585,30.1790594 160.01758,30.1790594 C159.432314,30.1790594 158.748099,30.5088551 158.491256,30.9168716 C158.188096,31.407337 157.421776,31.2530095 156.23019,30.4771439 C154.642812,29.4349049 153.861755,29.3883953 149.764889,30.1262075 C147.204874,30.5849618 144.173277,31.576463 143.046955,32.3248456 C141.910106,33.0774563 140.419571,33.688424 139.720619,33.6968803 C139.021668,33.6968803 138.646929,34.0161056 138.88272,34.4029814 C139.606934,35.574179 142.049054,35.1873032 144.352225,33.546781 C146.741713,31.8386083 154.899656,30.8471071 156.15861,32.111324 C157.432302,33.3903394 153.438594,38.1343239 149.322781,40.2357146 C147.211189,41.3138928 145.297494,42.6605587 145.082756,43.2250167 C144.868018,43.7894748 144.249067,44.2524572 143.710116,44.2524572 C143.175376,44.2524572 142.722742,44.6456752 142.712216,45.1297984 C142.691163,46.0895885 137.103762,49.1761381 135.387962,49.1761381 C134.806906,49.1761381 133.45953,50.1887801 132.402682,51.425514 C127.935287,56.6324809 127.514232,56.9115388 124.436319,56.7931506 L121.491039,56.6789906 L123.701578,54.7023304 C124.914217,53.6072395 125.912117,52.5438597 125.912117,52.3282241 C125.912117,51.5904118 122.880521,53.5776424 120.680508,55.7657101 C119.461553,56.972847 117.278383,58.3258551 115.827848,58.7592405 C114.002574,59.3067859 113.421518,59.3173563 113.941521,58.801522 C115.246792,57.4950236 114.758368,56.6430513 113.413097,57.8628726 C111.269926,59.8078217 111.017293,59.1735992 112.724672,56.1187607 C113.613098,54.5184058 115.659426,52.129501 117.263646,50.8018618 C118.872076,49.4763368 120.512086,47.4573951 120.907877,46.3157945 C121.328933,45.1234562 122.408939,43.9459163 123.467892,43.5442421 C125.832117,42.641532 125.910012,42.6521024 125.910012,43.9205474 C125.910012,45.3919437 128.002656,46.0938166 128.773187,44.8803375 C129.215295,44.1826927 129.394243,44.1530957 129.404769,44.7830901 C129.40898,45.2629851 129.758456,45.6604312 130.192142,45.6604312 C130.63425,45.6604312 130.808988,45.0367791 130.598461,44.2144039 C130.32688,43.1721648 130.648987,42.6034787 131.77531,42.1764355 C132.623736,41.8508679 133.743742,41.0771164 134.263745,40.4576924 C134.777432,39.8424966 135.943755,39.3266623 136.85955,39.3266623 C137.779555,39.3266623 138.520612,39.0433762 138.520612,38.6966679 C138.520612,38.335161 137.436395,38.3309329 135.893228,38.6860975 C134.45322,39.0328058 131.945837,39.1258251 130.341617,38.8932769 C127.823707,38.5423404 126.960545,38.7960294 124.158423,40.7367503 C122.364728,41.9692561 120.688929,42.7704906 120.427875,42.5062312 C120.160505,42.2419718 120.520507,41.6140915 121.215248,41.0961431 C122.0742,40.4661487 122.227885,40.0073944 121.697356,39.6775987 C120.448927,38.9038472 123.074206,36.4050105 124.617373,36.9018181 C126.50791,37.5064436 127.516337,36.6227602 126.314225,35.4198515 C125.758432,34.8617357 125.008954,34.4072095 124.644741,34.4072095 C124.274213,34.4072095 123.585788,33.9315426 123.10789,33.3544001 C122.008937,32.0225328 118.394179,32.0077343 116.097323,33.322689 C115.131002,33.8744626 113.269938,34.8194542 111.960457,35.4283078 C110.644659,36.0329333 108.244645,37.7199652 106.615162,39.1659926 C104.981468,40.6056777 102.328821,42.8571677 100.709864,44.161552 C99.0909076,45.4659363 97.4298452,47.2692424 97.0256323,48.1613821 C96.6214194,49.0535217 95.3182539,50.1887801 94.1371944,50.6855877 C92.9540295,51.1760531 91.0277025,52.4191293 89.8508535,53.4423416 C88.6676886,54.4697821 86.8024146,55.7805087 85.6929344,56.3639934 C84.0781881,57.1948249 83.8992397,57.4950236 84.8150345,57.8396178 C85.4424066,58.0869646 85.9603044,57.9728045 85.9603044,57.5964992 C85.9603044,57.2307642 86.2887273,56.915767 86.7013613,56.915767 C87.1139953,56.915767 88.6024251,56.1251029 90.0276966,55.1505143 C91.4571787,54.1801538 92.7266598,53.7108292 92.8550816,54.0977049 C93.4824537,55.9813458 100.286704,53.7573388 102.964614,50.778607 C103.638303,50.0302244 104.901468,49.4784508 105.766736,49.5545575 C106.636215,49.6327783 107.977275,49.3537204 108.743596,48.9351335 C110.377289,48.047222 114.802579,46.3961294 115.594162,46.3813308 C115.893111,46.3771027 115.655215,47.1149149 115.065738,48.017625 C114.480471,48.9161069 114.16047,49.8230451 114.370997,50.0365667 C114.577314,50.243746 113.62994,51.3938029 112.274143,52.5967116 C110.907819,53.7932781 109.792023,55.0997765 109.792023,55.4929945 C109.792023,55.8798702 108.615174,56.7001313 107.175165,57.308985 C104.400412,58.4696122 101.383553,60.9473082 101.383553,62.0719961 C101.383553,62.4483015 102.791982,62.5836023 104.693046,62.3658526 C107.514115,62.0466272 107.82359,62.1227339 106.775163,62.8964854 C105.566735,63.784397 100.006702,68.8010971 95.0256206,73.5091424 C93.6424546,74.8092985 92.101393,77.1432374 91.5877057,78.6865122 C91.0782291,80.2403574 90.4319095,81.3608172 90.1540131,81.1895772 C89.8655904,81.0141089 89.2550605,81.7878604 88.7918999,82.9125483 C87.5476821,85.9377898 83.5539745,89.4006448 82.5055473,88.3520636 C81.8739646,87.7284114 81.7855431,87.8045181 82.113966,88.6818593 C82.4381785,89.5126908 81.9644915,90.0348673 80.4065876,90.5760705 C79.2234228,90.9883152 78.2634172,91.8191467 78.2634172,92.419544 C78.2634172,93.0241695 77.8823623,93.5082927 77.421307,93.5082927 C76.8002507,93.5082927 76.7834085,93.715472 77.3707804,94.3031849 C78.3686809,95.3052565 77.7413089,96.9204099 75.5665593,98.9478079 C74.6212906,99.8251491 74.1012875,100.548163 74.4044472,100.548163 C74.7076069,100.548163 74.1054981,101.338827 73.0675973,102.309187 C70.9917956,104.203399 69.886526,104.533194 70.092843,103.16116 Z M61.6631004,72.7326592 C61.9811004,71.1896273 61.9131004,70.6829947 61.4671004,71.1896273 C61.1051004,71.6083511 60.5891004,72.9963858 60.3351004,74.2618107 C60.0171004,75.8094693 60.0911004,76.3184154 60.5311004,75.8094693 C60.8971004,75.3861187 61.4091004,74.0027109 61.6631004,72.7326592 Z M59.5750732,71.3249629 C59.6630732,70.359654 59.4430732,69.8229344 59.0530732,70.0529571 C58.2810732,70.5287305 58.1550732,73 58.9170732,73 C59.2030732,72.994102 59.5010732,72.2450537 59.5750732,71.3249629 Z M67.345899,64.4920808 C68.7940433,62.7184589 67.605665,62.4232337 66.0327512,64.1650621 C64.8300551,65.4958463 64.6950586,66 65.5377641,66 C65.8588921,66 66.6668257,65.3187112 67.345899,64.4920808 Z M71.8123217,57.9864798 C72.452869,57.1424798 71.3754734,57.1424798 69.7679697,57.9864798 C68.7077536,58.5384798 68.7322956,58.6364798 69.9225846,58.6464798 C70.685842,58.6504798 71.5300882,58.3564798 71.8123217,57.9864798 Z M78.4001975,54.4482563 C79.6162367,53.2690406 80.2517972,52.0854166 79.9467282,51.5806682 C79.605644,51.0097956 79.7348747,50.9084051 80.3344201,51.296334 C80.9403212,51.6776505 81.1309893,51.5387895 80.9127802,50.8555057 C80.4933102,49.552858 79.4806504,49.7578432 78.5845101,51.3338044 C78.2010552,52.0170883 77.012557,53.5026796 75.9405782,54.6334042 C74.874955,55.7685371 74,57.0932262 74,57.5759331 C74.0021185,58.5281223 74.7012351,58.0365987 78.4001975,54.4482563 Z M140.668404,39.998 C140.438404,39.632 139.956404,39.334 139.584404,39.334 C139.222404,39.334 139.106404,39.632 139.330404,39.998 C139.554404,40.364 140.042404,40.666 140.410404,40.666 C140.778404,40.666 140.894404,40.364 140.668404,39.998 Z M169.143164,31.4069099 C170.260444,31.4190879 170.276772,31.5262539 169.26912,32.2033484 C168.254471,32.8877497 168.266134,32.9949158 169.376417,32.999787 C170.059847,33.0119649 171.044173,32.5004906 171.552664,31.8648012 C172.271082,30.9538898 172.156789,30.6226493 170.971865,30.2232123 C168.928571,29.5461178 166.929596,30.4789494 167.001904,32.0840044 C167.041557,32.934026 167.207166,33.041192 167.452082,32.4055026 C167.676004,31.8404453 168.431743,31.3996031 169.143164,31.4069099 Z M149.343299,25.0899011 C149.938148,25.0899011 150.604971,24.6028842 150.827245,24.0119703 C151.375522,22.5639066 150.676946,22.6548165 147.891106,24.3821032 C146.517238,25.239253 145.77209,26.1635029 146.062105,26.6483553 C146.409276,27.213295 146.822072,27.1029045 147.406336,26.2782225 C147.880521,25.6245375 148.74845,25.0899011 149.343299,25.0899011 Z M156.665731,18.002 C156.895731,17.636 156.783731,17.334 156.411731,17.334 C156.045731,17.334 155.561731,17.636 155.331731,18.002 C155.101731,18.364 155.223731,18.666 155.589731,18.666 C155.955731,18.666 156.441731,18.364 156.665731,18.002 Z M161.996,13.002 C161.996,12.636 161.546,12.334 161,12.334 C160.454,12.334 160.004,12.636 160.004,13.002 C160.004,13.364 160.454,13.666 161,13.666 C161.546,13.666 161.996,13.364 161.996,13.002 Z M146.12948,94.8682551 C146.12948,94.2483325 145.638851,93.5534015 145.0488,93.3217578 C143.6504,92.7724313 143.6504,91.5921516 145.0488,91.5921516 C145.638851,91.5921516 146.12948,91.09136 146.12948,90.4934987 C146.12948,89.8846067 145.785823,89.3904335 145.360036,89.3904335 C144.942893,89.3904335 144.795921,89.077163 145.027186,88.6910902 C145.258452,88.3050174 145.982507,88.1947108 146.630915,88.4484158 C147.553816,88.8102212 147.696465,88.6160817 147.307421,87.5593453 C146.743306,86.0680012 147.841277,85.0178832 149.987507,85.0002341 C150.979571,84.9892035 151.228127,85.3664517 150.953635,86.454074 C150.664012,87.5858189 150.932021,87.9299752 152.129414,87.9343875 C152.978829,87.9343875 154.921891,88.2785438 156.419713,88.7109453 C158.937697,89.4279377 159.143027,89.6794366 158.94202,91.819383 C158.652398,94.8616367 156.415391,95.982351 150.620785,96 C147.058864,95.9933816 146.12948,95.7573257 146.12948,94.8682551 Z M242.517621,89.4821946 C241.492049,88.4584013 242.077451,87 243.509678,87 C244.501735,87 244.999997,87.497335 244.999997,88.4942453 C245.002232,89.9257636 243.543193,90.5059878 242.517621,89.4821946 Z M204.143493,69.0383258 C203.710431,68.2102425 203.36065,67.0433015 203.36065,66.4333578 C203.36065,65.8340034 203.046264,65.3320705 202.665252,65.3320705 C201.851179,65.3320705 201.755406,62.5449665 202.538249,61.2933111 C202.852635,60.7913783 204.012325,60.5478243 205.299019,60.7151353 C206.519089,60.8760927 207.520545,60.719371 207.520545,60.3847491 C207.520545,59.7282124 212.182208,59.9717664 212.863032,60.6643066 C213.543855,61.3462576 211.515959,63.3073962 210.529077,62.9177099 C209.252793,62.4221306 209.354812,63.900397 210.706049,65.4104313 C211.996908,66.8632834 211.503467,68.1085852 209.690019,67.9645707 C208.825977,67.8967992 208.515755,67.4584021 208.734368,66.5985509 C209.294434,64.4362156 207.941115,65.2177061 206.400413,67.9433921 C204.988797,70.4403493 204.907598,70.4827065 204.143493,69.0383258 Z M109.590814,59.9676145 C110.040814,59.5136145 110.572814,59.3136145 110.776814,59.5176145 C110.980814,59.7216145 110.620814,60.0936145 109.956814,60.3436145 C109.014814,60.7116145 108.942814,60.6336145 109.590814,59.9676145 Z M255.576624,59.0825828 C254.462294,57.7525994 255.095933,57.5987918 256.346822,58.8962042 C256.927657,59.5060061 257.168003,60 256.874854,60 C256.578064,60 255.993587,59.5892432 255.576624,59.0825828 Z M223.378865,58.613439 C222.78198,58.3934539 222.881823,57.9574121 223.739166,57.1756794 C224.594338,56.3939467 225.208586,56.2544919 225.783765,56.7258885 C226.239568,57.0951491 226.441423,57.6568967 226.228715,57.9731253 C226.011667,58.2893538 226.29166,58.4091671 226.842964,58.2363217 C227.478917,58.0399065 227.765421,57.1855001 227.622169,55.8675538 C227.398609,53.8719749 227.452871,53.8287636 229.365071,54.4867547 C230.791081,54.9797569 231.485638,54.9620796 231.85245,54.414081 C232.217092,53.8719749 232.503596,53.8621542 232.859556,54.3846187 C233.135208,54.7833417 232.991956,55.109391 232.544836,55.109391 C232.097715,55.109391 231.937099,55.405978 232.184535,55.7654179 C232.434141,56.1209295 232.20624,56.4214448 231.687493,56.4273373 C230.999448,56.4371581 231.036346,56.6100035 231.822063,57.0696151 C232.705452,57.5881514 232.60995,57.7079647 231.333703,57.7177855 C230.478531,57.7217138 229.610336,57.3583456 229.40848,56.9065905 C229.176238,56.397875 229.022134,56.4901902 228.985235,57.1658586 C228.907098,58.7371806 225.857562,59.5248057 223.378865,58.613439 Z M95.1341152,51.3065638 C95.3255374,50.9845638 96.1295109,50.5505638 96.9239133,50.3405638 C98.3174673,49.9785638 98.3251241,50.0045638 97.1344777,50.9265638 C95.760066,51.9945638 94.5962187,52.2185638 95.1341152,51.3065638 Z M112.764806,44.9864804 C114.370943,44.1424804 115.456436,44.1424804 114.810543,44.9864804 C114.535486,45.3484804 113.688212,45.6504804 112.926894,45.6464804 C111.728431,45.6344804 111.71124,45.5464804 112.764806,44.9864804 Z M117.002,41.9999952 C117.002,41.6379952 117.456,41.3319952 118.002,41.3319952 C118.548,41.3319952 118.998,41.6399952 118.998,41.9999952 C118.998,42.3599952 118.548,42.6679952 118.002,42.6679952 C117.452,42.6699952 117.002,42.3619952 117.002,41.9999952 Z M179.237314,28.9157878 C179.461314,28.6957878 180.033314,28.6717878 180.517314,28.8617878 C181.039314,29.0717878 180.889314,29.2337878 180.111314,29.2617878 C179.407314,29.2957878 179.017314,29.1357878 179.237314,28.9157878 Z M173.88818,28.575876 C173.107803,28.325876 172.779339,27.969876 173.156301,27.783876 C174.13067,27.295876 180.486116,27.075876 179.970273,27.543876 C179.070855,28.359876 175.24392,29.009876 173.88818,28.575876 Z M178.882093,24.6176769 C177.382367,24.0456769 177.912552,22.9576769 179.587599,23.1816769 C180.453638,23.2996769 181.087325,23.6996769 180.99016,24.0596769 C180.781043,24.8696769 180.058639,25.0556769 178.882093,24.6176769 Z M169,23.855609 C169,23.6504302 169.712934,22.7632761 170.592008,21.8956629 C171.742376,20.7505697 173.189274,20.197564 175.761304,19.9435331 C177.733964,19.7481247 180.167192,19.3944355 181.17245,19.1618995 C182.533123,18.8414298 183,18.986032 183,19.6914563 C183,20.988968 181.161935,22.3529185 180.181914,21.7901423 C179.754995,21.5419737 177.927445,21.5517441 176.131441,21.8135913 C173.523659,22.1907295 173.138801,22.3900461 174.257624,22.8101741 C175.525762,23.2869706 175.494217,23.3358227 173.908517,23.3866289 C172.943218,23.4159401 171.450053,23.6152567 170.581493,23.8302059 C169.706625,24.0471092 169,24.0568796 169,23.855609 Z M236.19635,11.9165364 C236.74077,11.7365364 237.834447,11.7265364 238.613572,11.8925364 C239.397536,12.0625364 238.949902,12.2105364 237.621519,12.2245364 C236.290716,12.2385364 235.647092,12.1025364 236.19635,11.9165364 Z" id="Shape" fill="#522737"></path>
                </g>
            </g>
        </g>
    </g>
</svg>