<svg xmlns="http://www.w3.org/2000/svg" viewBox="0 0 200 159"><defs><style>.cls-1{fill:#442b2d;}.cls-2{fill:#fff;}</style></defs><title>Asset 10</title><g id="Layer_2" data-name="Layer 2"><g id="Layer_1-2" data-name="Layer 1"><path class="cls-1" d="M102.8,0H82.2A38.2,38.2,0,0,0,44,38.2V135h97V38.2A38.2,38.2,0,0,0,102.8,0Z"/><path class="cls-1" d="M0,159V133.69S43.72,119,93,119s107,15.51,107,15.51V159Z"/><path class="cls-1" d="M102.8,0h-1.6A38.2,38.2,0,0,0,63,38.2V135h78V38.2A38.2,38.2,0,0,0,102.8,0Z"/><path class="cls-1" d="M123,0A43.22,43.22,0,0,1,146,38.2V135h14V38.2A38.19,38.19,0,0,0,123,0Z"/><polygon class="cls-2" points="110 40.46 95.39 40.46 95.39 24.96 84.61 24.96 84.61 40.46 70 40.46 70 51.89 84.61 51.89 84.61 76.37 95.39 76.37 95.39 51.89 110 51.89 110 40.46"/></g></g></svg>