<?xml version="1.0" encoding="UTF-8"?>
<svg width="131px" height="129px" viewBox="0 0 131 129" version="1.1" xmlns="http://www.w3.org/2000/svg" xmlns:xlink="http://www.w3.org/1999/xlink">
    <!-- Generator: Sketch 53.2 (72643) - https://sketchapp.com -->
    <title>southAfrica</title>
    <desc>Created with Sketch.</desc>
    <g id="Page-1" stroke="none" stroke-width="1" fill="none" fill-rule="evenodd">
        <g id="Desktop-HD" transform="translate(-1053.000000, -510.000000)" fill="#96240F" fill-rule="nonzero">
            <g id="southAfrica" transform="translate(1053.000000, 510.000000)">
                <path d="M82.0313689,117.266728 C81.6670946,116.881535 81.480139,116.240188 81.0214233,115.841513 C81.009859,115.774105 80.9982948,115.708622 80.9886579,115.648917 C80.7361715,115.417801 80.7959202,114.984459 80.4393554,114.8169 C80.4503739,114.798895 80.4535181,114.777162 80.4480536,114.756776 C80.442589,114.73639 80.4289943,114.719136 80.4104447,114.709046 C80.1887964,114.362372 80.0249693,113.969475 79.7358627,113.678654 C79.0130963,112.929454 78.4984866,111.822024 77.1570322,112.02425 C76.5923107,111.989583 76.7349366,112.501889 76.6848248,112.754191 C76.634713,113.006492 76.9430933,112.881305 77.1127025,112.881305 C77.5482897,112.881305 77.3806079,113.305017 77.5367255,113.501466 C77.3189817,113.641852 77.2030406,113.896134 77.2399094,114.152442 C77.3150771,115.402393 77.3073676,115.402393 76.2396007,115.030682 C76.21069,115.030682 76.1509413,115.098091 76.1027569,115.13661 C76.1027569,115.646991 77.0278979,115.521803 76.8255233,116.203595 C76.5711095,117.064501 76.8409423,118.050596 76.1547961,118.820982 C75.9864361,119.06625 75.9531032,119.379785 76.0661367,119.654925 C76.5865285,121.153326 76.5075061,122.73647 76.8023948,124.277242 C77.0683728,125.662011 77.2052166,127.125745 78.3038215,128.202359 L78.3038215,128.202359 C78.4156094,128.460439 78.5351068,128.70311 78.8820347,128.597182 C79.7300806,129.431125 80.4817577,128.762815 81.2546359,128.439253 L81.4280999,128.346807 C82.5498333,127.961614 83.5963991,127.480122 84.0724613,126.274468 L84.3326572,126.141576 C85.3503123,124.408208 85.1517924,122.630541 84.091735,121.120585 C83.253326,119.897597 83.0740799,118.379936 82.0313689,117.266728 Z" id="Path"></path>
                <path d="M130.724024,40.1090539 C130.590204,39.9423047 130.521435,39.638125 130.190601,39.7297454 C130.261229,39.2863026 129.718512,39.0261006 129.835605,38.569831 L129.809585,38.569831 C130.07165,38.3187911 130.341149,38.0732484 130.59578,37.8148788 C131.140355,37.2651563 130.921038,35.764414 130.179449,35.6489723 C129.330061,35.5188713 128.495542,35.0241211 127.597829,35.3319657 C127.040244,35.5243686 127.062547,35.2091943 127.110871,34.8427127 C127.246551,34.2929902 128.160991,33.7634243 127.185216,33.1568972 C127.079275,32.761097 126.92501,32.4899006 126.471507,32.8453878 C126.332111,32.9534999 126.138814,33.0597795 125.990125,32.8838683 C125.927323,32.8167849 125.897528,32.7259179 125.908617,32.6352849 C125.919706,32.5446518 125.970561,32.4633758 126.047742,32.4129394 C126.806058,31.7954179 126.084914,31.813742 125.729918,31.6799762 C125.789394,31.4967353 125.683453,31.4747464 125.534764,31.4967353 C125.066392,31.0477953 123.936352,31.1302537 123.588791,31.8522225 C123.217067,32.6401581 122.672492,32.6364932 122.020117,32.6419905 C121.62609,32.4294311 121.215336,32.2425255 120.845471,31.9951504 C120.399403,31.7001326 120.102024,31.8119095 119.615066,32.042793 C118.711778,32.4899006 118.58725,33.5801835 117.715558,33.9906429 C117.018577,34.1372355 116.128299,33.9246762 115.739848,34.6942876 C115.496369,35.1780434 115.169252,35.6104917 114.940642,36.0924151 C114.754141,36.1416446 114.598299,36.2678997 114.51316,36.4387402 C113.944423,36.6219811 114.327298,37.0580942 114.254812,37.3751008 C114.11639,37.4274394 114.018491,37.5507287 114.000181,37.6957723 C113.717672,37.5730009 113.461182,37.730588 113.206552,37.7873927 C112.234495,37.999952 111.266155,38.2949697 110.481818,37.3641064 L110.481818,37.3641064 C109.846171,36.6989422 109.164058,36.7740709 108.459642,37.2431674 L108.009856,37.2431674 C107.792398,37.2211785 107.690174,36.9646414 107.35934,37.09291 C106.833351,37.2963073 106.359404,36.9884627 106.088046,36.5431875 C105.604805,35.7534196 104.760992,35.6269834 103.959928,36.2609966 C103.536163,36.2060244 103.368888,36.4790532 103.242502,36.8107191 C102.385679,37.5436824 102.223979,38.7035968 101.549301,39.5501694 C100.619992,39.5501694 100.846743,38.8905024 100.885774,38.3920874 C100.997291,36.913334 100.489889,36.5450199 99.0271565,36.9261608 C98.397085,37.0947424 97.9603099,37.551012 97.332097,37.721426 C96.2169264,38.0237733 95.1742418,37.7507445 94.1073952,37.5656713 C93.5962753,37.3512795 93.0795795,36.6971098 92.5350045,37.1991896 C92.0257432,37.6737834 91.7153541,37.4282407 91.3101754,37.1991896 C91.2191031,37.0580942 91.0666964,36.6787857 90.9756242,36.9005071 C90.6299213,37.730588 90.4514939,37.0177812 90.232177,36.8693562 C90.0333049,36.7410876 89.8604535,36.5889977 89.6652986,36.4479023 C89.5147506,36.2188513 89.3865059,35.714939 89.1300167,35.8981798 C88.5835831,36.2793207 88.014846,35.8981798 87.5055847,36.1070744 C87.4256642,35.9476548 87.2732575,35.7864029 87.2769747,35.6306482 C87.2992782,34.6704663 86.7639962,34.507382 85.9647906,34.6887904 C85.7547668,34.736433 85.5651877,34.7950701 85.3514467,34.6539747 C84.7641235,34.2673365 84.1600727,33.9026873 83.5634564,33.5307084 C83.5634564,32.8362257 83.3404222,32.271844 82.6341475,32.011642 C82.1126271,31.7760035 81.4947218,31.9530669 81.182567,32.4275987 L80.5729403,32.0611171 C79.7793105,30.4412682 78.1567372,30.0253116 76.6493981,29.4627622 L75.7330996,28.7701119 C75.7461099,28.6290165 75.6699066,28.5722119 75.5472378,28.5667146 C75.069573,27.9528579 74.6532426,27.2510455 73.68862,27.3390011 C73.4339894,27.2345539 73.2741482,27.4379512 73.0752761,27.522242 C72.5474287,27.3591576 72.3578496,27.5607225 72.3578496,28.0921209 C72.3578496,28.3376636 72.3113842,28.6601674 71.9638227,28.7444582 C71.6813128,28.8140897 71.5456337,28.5612174 71.4694303,28.4127923 C70.887683,27.2950233 69.7427744,27.0513131 68.7112415,26.633524 C68.426873,26.5180823 68.0941804,26.46311 68.008684,26.1131201 C67.8860152,25.6128726 67.4510986,25.5120902 67.0905268,25.2500558 C66.3266349,24.6820093 65.4177708,24.8322667 64.6167065,24.5170925 C64.3439201,24.1965376 64.0954333,23.856624 63.8732594,23.500106 C63.6242046,23.0401715 63.3881601,22.979702 62.9922745,23.329692 C62.8528782,23.4524634 62.683744,23.639369 62.3937996,23.5440838 C62.2934342,22.5893991 61.9365796,21.7006811 61.5221079,20.82479 C61.2377393,20.2237601 60.4812819,19.9562285 60.3902096,19.2287625 C60.4701302,18.9209179 59.8939587,18.5727603 60.4255234,18.3125584 C60.8715916,18.0853397 61.1689705,18.3125584 61.3827115,18.7046937 C61.7302731,19.3130532 62.1986447,19.0088735 62.6428544,18.8512864 L62.6911785,18.8512864 L62.7041888,18.8054762 C62.8287162,18.7486715 62.9718297,18.7065261 62.912354,18.5214529 C63.3398361,18.4646482 63.7282872,18.2337648 63.7617423,17.839797 C63.8100664,17.2900746 63.3900188,16.9235929 62.9067781,16.663391 C62.8919092,16.5992567 62.8751816,16.5351224 62.8584541,16.4801502 C62.9104954,15.9963944 62.6818854,15.6207507 62.2488274,15.4943146 C61.4663493,15.2634311 60.9663811,14.7137087 60.4571199,14.1548242 C60.475706,13.669236 60.2117823,13.260609 60.0853963,12.8171662 C59.9627275,12.5991096 59.8270484,12.3847178 59.9422827,12.1226835 C60.8288434,11.4666813 60.7860952,10.8821431 59.6337522,10.5229911 C58.1617269,10.0648891 57.1803767,9.24030537 56.6599637,7.82568625 C56.5447294,7.51784167 56.2585022,7.27596379 56.230623,6.92780623 C56.2244051,6.72296493 56.1237876,6.53209737 55.9573227,6.40936603 C55.7908578,6.28663468 55.576714,6.24543485 55.3756588,6.29745781 C54.2920846,6.54849773 53.2308138,6.21499944 52.16025,6.29745781 L51.7216162,6.11421699 L51.5803612,6.07390401 L51.5673509,6.05924474 C51.3944995,5.5571649 50.7235384,5.44355559 50.6213145,4.87550905 C50.5897179,4.69226823 50.4224423,4.71059231 50.2495909,4.73991084 C48.9820136,4.96163223 48.3463663,4.51269223 48.1512114,3.27398428 C48.065715,2.73525627 47.9913703,2.19469586 47.4932607,1.84104107 L47.4932607,1.84104107 C47.0546269,1.14472596 46.3018867,1.22535192 45.6346429,1.1080778 C45.1365333,0.160722758 43.4303222,-0.282720026 42.1199966,0.191873697 C41.5828561,0.516209948 41.068019,1.01462498 40.3933407,0.864367505 C38.8265259,0.51437754 37.3043179,0.96148514 35.7653824,1.04760832 C34.3305294,1.12090465 33.535041,2.38526631 32.4533254,3.08891106 C31.5518958,3.67161686 31.672706,4.05459018 32.5462563,4.82786644 C32.7767249,5.03126375 32.9811729,5.26214718 33.1967726,5.47837135 C33.7543579,6.86367194 34.3007915,8.24164291 32.800887,9.43820546 C32.6261769,9.57746848 32.6020149,9.88714547 32.4421737,10.0612242 C32.1317846,10.4002198 32.2154224,10.6604217 32.5481149,10.8876403 C32.9198385,11.1423451 33.0759624,11.4703462 32.9477178,11.9046269 C32.8083214,12.3828854 32.4031428,12.551467 31.9682262,12.6229309 C31.3214272,12.7273782 30.6820627,12.610104 30.0426981,12.4891651 C29.6468126,12.412204 29.0743583,12.1483372 28.9498309,12.7328754 C28.8438897,13.2239608 29.2713718,13.539135 29.8140882,13.5647887 C29.858695,13.6417499 29.8995846,13.7223758 29.9497673,13.7975046 C31.1615861,15.5895998 31.1615861,15.5895998 29.0669238,16.2529315 C29.0093067,16.2712556 28.9572654,16.3060714 28.8996482,16.3280603 C28.6264314,16.4325075 28.3420629,16.623078 28.3643663,16.892442 C28.4721661,18.0615184 27.7937706,19.1994439 28.2528492,20.3740176 C28.652452,21.4001662 28.0669874,22.0543359 26.8644617,22.3640129 C26.5986794,21.5705801 25.0931989,21.183942 24.4203793,21.7464913 C24.3813483,21.7776423 24.4333896,21.9150729 24.4426827,22.0030285 L23.8850974,22.3695101 C23.595153,22.4611305 23.3089259,22.561913 23.0171229,22.6425389 C22.7253199,22.7231649 22.5208719,22.8734224 22.8312611,23.1226299 C23.4854945,23.6595255 22.9074644,23.7199949 22.5599029,23.8042857 C22.0822381,23.9197274 21.6008561,23.9618728 21.1231913,23.7108329 C20.7514678,23.5129328 20.3425718,23.4433013 20.1827307,24.0095154 C20.171579,24.0919738 20.1604273,24.1762646 20.1511342,24.258723 C18.66424,25.1291169 18.2553441,26.7856139 19.1865116,28.0719644 C18.7032709,28.5923683 19.5284972,29.2392084 19.0210946,29.7596124 C18.7663874,29.8512349 18.5047511,29.9229208 18.2386165,29.9740041 C16.6309121,30.1572449 15.1421592,31.1192592 13.4173619,30.6629896 C12.9934451,30.5571989 12.5496047,30.7401468 12.3282119,31.1119296 C11.6251766,31.3057085 10.8778031,31.2736164 10.1945186,31.0203092 C9.75044262,30.8902868 9.28091947,30.8689028 8.82657594,30.9580073 C7.40444961,31.1788667 5.96086616,31.2336062 4.52573435,31.1210917 C3.35852237,30.8260739 2.29539299,30.2781839 1.16163613,29.8677244 C0.849388335,29.6038577 0.472088922,29.5562151 0,29.5012428 C0.282509906,30.1059375 0.728578178,30.444933 1.1802223,30.7747665 L1.356791,30.9763314 C2.2136138,31.5810261 2.421779,32.6841358 3.2154088,33.3346408 C3.22841912,33.4830658 3.11690205,33.7011224 3.40127058,33.7011224 C3.59828406,34.4047671 4.13542461,34.8097294 4.7506271,35.1139091 C5.49407422,35.4803908 6.24681443,35.8212187 7.01256497,36.1345605 C7.36032249,36.2454889 7.62216441,36.530151 7.70025355,36.882183 C7.94849901,37.7589065 8.08706518,38.6622698 8.11286671,39.5721583 C8.12959427,40.1347076 8.29872849,40.5634911 9.02916528,40.5689883 C10.1220325,40.5689883 10.090436,40.6606087 10.0253844,41.7270703 C9.96590865,42.6725929 9.37486819,42.8173532 8.67416928,42.8265152 C7.64635364,42.8265152 6.77652051,43.040907 6.3378867,44.0817148 C5.36025374,44.2759501 4.90860961,45.2837746 5.25059529,46.5206501 C4.61308938,47.1491662 4.90303376,47.9224424 5.00897498,48.6077631 C5.14279546,49.4616653 5.91412185,49.6852191 6.59437596,49.1080105 C6.85644107,48.8844567 7.02185806,48.7818419 7.27648869,49.0347142 C7.77273965,49.5294644 7.9139946,49.1299994 8.06268402,48.7415289 L10.7112144,48.7030483 C11.043907,48.7030483 11.3877513,48.7341992 11.5680372,48.3622204 L11.7985058,48.1918064 C12.8300387,48.3383991 13.9098956,48.0543758 14.9061148,48.6517409 C15.1997764,48.8349817 15.8354237,49.1080105 16.0937715,48.8203224 C16.5658605,48.2706 17.1531837,48.4648352 17.6810311,48.310913 C18.6698158,48.0213925 19.7756934,48.4556732 20.7012851,47.8234924 L20.7012851,47.8234924 L20.7180126,47.8124979 L20.7180126,47.8124979 L20.9038744,47.6292571 L20.9038744,47.6292571 C22.5022857,47.5852793 23.0412849,48.0360517 23.176964,49.5477885 C23.2067019,49.8794544 23.1565192,50.2514332 23.682508,50.2019582 C24.0821109,50.7095353 24.6824444,50.3943611 25.1694023,50.5537806 L25.180554,50.5537806 C25.2815066,50.7729576 25.3563507,51.0029324 25.4035881,51.2391013 C25.647067,52.4246694 25.8682426,53.6212319 27.0466063,54.3541952 C27.271499,54.4952906 27.4350574,54.5960731 27.6803949,54.5649221 C28.2923564,54.4778492 28.9114133,54.6684922 29.3643027,55.0834937 C29.921888,55.5544226 30.1523566,56.3533525 30.9274002,56.5970628 C30.9395223,56.9690154 31.160041,57.3035994 31.4998545,57.4656243 C32.1949776,57.8449328 32.9086868,58.1985876 33.6261133,58.5394155 C34.269195,58.8472601 34.8936906,58.9205564 35.5200448,58.4331358 C35.8917684,58.1491126 36.350847,58.0868107 36.8210773,58.0556597 C37.3303386,58.020844 37.1314664,58.3561747 37.1612043,58.5815609 C37.1221734,59.2357306 36.6538017,59.5179215 36.1203784,59.7433077 L33.3510378,60.4304608 C33.2971379,60.1555995 33.2079243,59.906392 32.8677972,59.8807383 C32.7118744,59.8483675 32.5577808,59.9429138 32.5183771,60.0951301 C32.4254462,60.4249635 32.3325153,60.7529646 32.7804422,60.9178814 L32.9923246,61.3265084 C33.4346756,62.1840754 34.1762641,62.7246358 35.0107835,63.1589166 L35.0498145,63.1955647 L35.0999972,63.1790731 C35.0999972,63.3531518 35.168766,63.4502695 35.3639209,63.3934648 L35.5088931,63.5327278 C35.5274793,63.6628288 35.538631,63.798427 35.7319272,63.7636113 C35.7298263,63.8236627 35.7488708,63.8825803 35.7858272,63.9303604 C35.8713236,64.3169986 36.2151679,64.4635912 36.4883847,64.6761506 L36.6259224,65.08661 C37.1686388,65.4769129 37.4697349,66.164066 38.1964544,66.3271503 C38.2819509,66.5763579 38.4064783,66.7687607 38.7243019,66.6844699 L38.7243019,66.6844699 C39.7093693,67.4559138 40.8282573,67.3881147 41.6980904,66.5012291 C41.991752,66.3491392 42.2947067,66.213541 42.5790752,66.0449595 C43.3225223,65.6015167 44.223952,65.3119962 44.5083205,64.3481495 C45.2424745,63.4740908 44.6458582,62.990335 43.9507352,62.5340654 C44.7945476,62.1236059 44.6644444,61.3100167 44.7239202,60.5312432 C45.162554,60.7529646 45.5956119,60.714484 45.3670019,61.4199612 C45.2350401,61.832253 45.5268431,62.5633839 45.8762632,62.900547 C46.4468589,63.4502695 46.2219661,63.9102039 46.0212354,64.4434347 L46.2070972,65.0188109 C46.2684316,65.2203758 46.2721488,65.5428796 46.402252,65.6051815 C47.584333,66.154904 47.4765331,67.3019915 47.1735784,68.0789326 C46.5249208,69.7281 46.8910685,71.1793673 47.4728159,72.7039309 C47.7661934,73.4087425 47.9667002,74.1477306 48.0694322,74.9028207 C48.1885891,76.0171092 48.4265683,77.1159079 48.7794242,78.180999 C48.7905759,78.4448658 48.965286,78.679414 49.0563583,78.8919734 C49.5191541,79.9254516 49.6139436,81.0908632 50.2533081,82.0565423 C49.92805,82.3277387 50.1213463,82.6740639 50.1473669,82.9727464 C50.2686383,84.129515 50.6258308,85.2501797 51.197486,86.2674164 C51.4316718,86.8592842 51.6416956,87.4713085 52.3126567,87.751667 C52.3516876,88.0027069 52.2903532,88.3142163 52.6843802,88.3600265 C52.6683373,88.4066143 52.6840061,88.4581071 52.7234112,88.4882951 C52.8497972,89.2853927 53.0040625,90.0733282 53.5951029,90.6871849 C53.7958337,91.5190982 54.3850155,92.0468318 55.0578351,92.5195931 C55.0206628,92.6515265 54.9816318,92.7834599 54.9426008,92.9172257 C55.3143244,93.9048937 55.442569,95.0025062 56.1990265,95.8307547 C56.5298604,96.7121431 56.3514331,97.7291296 56.9592012,98.5335568 C57.0762941,99.8602204 57.6580414,101.014638 58.321568,102.141569 C58.5143959,102.490228 58.8134684,102.77034 59.1765322,102.942331 C59.0575807,103.634981 59.615166,104.041776 59.9199793,104.532861 C60.9979776,106.315794 61.6800904,108.276471 62.5703683,110.143695 C62.7509826,110.742971 62.881522,111.355822 62.960678,111.976103 C63.2227431,113.922121 63.9234421,115.719713 65.5032672,117.055539 C65.689129,117.295584 65.8749908,117.531965 66.0608525,117.777508 C67.1537198,119.300239 68.4919246,119.404686 69.8301294,118.067028 C70.6460626,117.359719 70.430463,116.329905 70.6776592,115.444852 L70.911845,115.058214 C71.1924963,115.082035 71.4192477,115.028895 71.4471269,114.691732 C72.0047123,114.710056 72.4675081,114.442525 72.963759,114.270278 C73.6347201,114.33258 74.3149742,114.343575 75.0472696,114.744872 C74.7573252,114.165831 74.5026946,113.887305 73.9581196,114.011909 C73.648161,114.05688 73.3346818,113.956572 73.1105899,113.740712 C73.1793587,113.28261 73.2499862,112.824508 73.318755,112.366406 C73.7852681,111.816684 74.3335604,111.336593 74.2350536,110.50468 C74.2015985,110.215159 74.4729567,110.033751 74.7629011,109.954957 C76.2274919,110.138198 76.2497953,109.954957 76.1921782,108.511019 C76.1475713,107.228334 75.8204546,105.993291 75.7516858,104.723432 L75.8167374,104.723432 L75.7498271,104.70694 L75.7498271,104.727097 C75.7368168,104.360615 75.8632028,103.994133 75.5955619,103.662467 C76.1029645,103.281326 76.0564991,102.641816 76.3204228,102.141569 C77.2497317,100.371462 77.719962,98.5170651 76.9765149,96.5600532 C76.3148469,94.8247626 76.6233775,92.9153933 75.9431234,91.194762 C75.4524483,89.9523892 75.7832823,88.829123 76.4858398,87.8267957 C76.8222496,87.3467048 77.3463798,86.6943675 78.0861097,87.5519345 C78.2422336,87.7351753 78.8128293,87.8890976 78.9447911,87.3210511 C79.0674599,86.7878203 79.4521938,86.3388803 79.4447593,85.7671689 L79.4224559,85.5509447 C79.6900969,85.1533122 80.117579,85.2082844 80.5078887,85.2046196 C81.0643111,85.2096778 81.6184848,85.1343606 82.1527655,84.9810658 C82.9371022,84.7410203 83.5801839,83.868794 83.2995326,83.2769262 C82.8739092,82.3717165 83.3980394,81.8952904 83.9909385,81.444518 C84.3087621,81.2026401 84.6433133,80.9992428 84.8403268,80.6419232 L84.8551957,80.6309287 C86.1246317,80.5319787 86.633893,79.6121098 87.0855371,78.6281066 C87.6691431,78.1919934 88.2713353,77.7778692 88.8289206,77.3142699 C89.1857752,77.0174198 89.6113987,76.7443909 89.687602,76.214825 C89.8734638,75.9198073 90.1559737,75.6651025 90.2284598,75.3096153 L90.2284598,75.3096153 L90.5667282,74.7727197 C90.6062717,74.7383702 90.614192,74.6805868 90.5853144,74.6371215 C91.0183724,74.4099029 90.918007,73.849186 91.3417719,73.5669951 C92.1826583,73.0445207 92.6293502,72.0802618 92.479246,71.1115682 C92.6502388,71.1573784 92.6651077,71.0456015 92.6651077,70.9283273 C92.9253142,70.8770199 93.1297622,70.5233651 93.3918273,70.6827846 C93.7802784,70.9191653 93.174369,71.1775348 93.3267757,71.4542285 C95.0924626,71.2856469 96.1537334,70.635142 97.4566244,68.9273376 C98.2167991,67.8682056 98.2762749,66.7284477 97.8004687,65.5557065 C97.6951148,65.3016824 97.6642044,65.0236022 97.7112551,64.7531117 C98.7557983,63.5052417 100.685044,63.7178011 101.649666,62.1199411 C101.85969,63.470426 102.0344,63.6115214 103.065933,63.4630963 C103.701721,63.3461251 104.350222,63.311016 104.995178,63.3586491 C106.320373,63.4960797 107.493161,62.9573517 108.526552,62.0942874 C108.758879,62.2866903 108.738434,62.7447923 109.171492,62.7576192 C109.333192,62.8327479 109.442851,62.8950498 109.63243,62.711809 C109.950253,62.4076292 109.662168,61.4162964 110.639801,61.8175938 C110.736449,61.8579068 110.799642,61.6105316 110.777338,61.4511121 C110.725297,61.0663064 110.6937,60.6778359 110.652811,60.2893653 C110.719721,59.9796884 110.533859,59.7854531 110.34428,59.5765586 C109.786695,58.9645342 109.890778,58.2938728 110.110094,57.4711215 C110.55988,58.1839283 110.795924,59.0195065 111.331206,59.3035297 C112.260515,59.7872855 112.228919,60.4616117 112.219626,61.2403852 C112.219626,61.3796482 112.143422,61.5757159 112.351588,61.6233585 C112.559753,61.6710011 112.667553,61.4932575 112.756766,61.3320056 C112.89701,61.1207831 112.900633,60.8486362 112.766059,60.6338581 C112.314415,60.0218337 112.524439,59.5142567 112.951921,59.0231713 L113.098752,58.8802434 C113.427727,58.7116619 113.503931,58.9700314 113.634034,59.1734287 C114.191619,60.0419902 114.749204,60.9032221 115.30679,61.7662863 C115.416448,63.7562816 116.282564,65.4311027 117.622628,67.0491192 C117.451635,66.2886698 117.291794,65.674813 117.180277,65.0536267 C117.089204,64.5405524 117.286218,64.3591439 117.797338,64.6230107 C118.072413,64.7641062 118.312175,65.0847776 118.700626,64.8722182 C118.514764,64.058629 118.328902,63.2633638 118.167203,62.4644339 C118.07613,62.04298 118.19694,61.4309556 118.592826,61.5390677 C119.373446,61.7497947 119.592762,61.2788658 119.929172,60.8574119 C120.13362,60.1244486 119.583469,59.5160891 119.557449,58.8179416 C119.65038,58.478946 119.299101,58.0061847 119.654097,57.810117 C120.261865,57.4747863 120.152206,56.9635445 120.159641,56.4724591 C120.165702,55.7166374 120.039964,54.9654106 119.787917,54.2515803 C119.665249,53.8850987 119.743311,53.7678246 120.185662,53.7165171 C120.758116,53.6505504 121.252508,53.9693895 121.804518,53.899758 C122.263596,54.3871785 122.529379,54.4751341 122.607441,53.6322264 C122.705947,52.5657648 123.165026,51.5909236 123.640832,50.6399038 C124.012556,49.8977785 124.276479,49.1611504 123.473556,48.5106454 C123.241229,48.3274046 123.382484,48.050711 123.298846,47.830822 L123.67057,47.2810995 L123.856432,47.0978587 L123.856432,47.0978587 C124.345248,46.7313771 124.882389,45.285607 124.599879,44.8073485 C124.1947,44.1311899 124.228155,43.4330423 124.246741,42.7147383 C124.467917,42.7587161 124.69281,42.8100235 124.804327,42.5314975 C125.581229,42.2932844 126.172269,41.8535065 126.447345,41.0655709 L128.358004,39.9001593 C129.11632,39.7993769 129.631157,40.176853 130.09767,40.7119162 C130.296542,40.9391348 130.655256,41.1205432 130.909886,40.8530116 C131.134779,40.5891448 130.887583,40.3124512 130.724024,40.1090539 Z M32.4403151,40.7064189 C32.4590133,40.655734 32.4820179,40.6066957 32.509084,40.5598263 L32.509084,40.5598263 C32.4820179,40.6066957 32.4590133,40.655734 32.4403151,40.7064189 L32.4403151,40.7064189 Z M33.1112761,39.6985944 L33.1112761,39.6985944 L33.1391554,39.727913 L33.1112761,39.6985944 Z M34.18184,52.6170722 L34.1242228,52.6573852 L34.18184,52.6170722 C34.1976256,52.6344672 34.2143789,52.6509843 34.2320227,52.6665472 C34.2143789,52.6509843 34.1976256,52.6344672 34.18184,52.6170722 L34.18184,52.6170722 Z M34.7394253,52.9322464 C34.8160574,52.9742643 34.8955485,53.0110004 34.9773284,53.0421909 C34.8930121,53.0113156 34.8110267,52.974575 34.7319909,52.9322464 L34.7394253,52.9322464 Z M36.1668438,52.4191721 C36.1367886,52.3893166 36.1044799,52.3617514 36.0701957,52.3367138 C36.1044799,52.3617514 36.1367886,52.3893166 36.1668438,52.4191721 L36.1668438,52.4191721 Z M38.1016649,48.9614179 L38.1016649,48.9614179 C38.1450327,48.9296561 38.1859223,48.8966728 38.2243337,48.8624678 C38.1834441,48.8966728 38.1425545,48.9296561 38.1016649,48.9614179 Z M38.1016649,37.8918399 C38.189653,37.8856386 38.2641229,37.8254344 38.2875267,37.7415825 C38.2905692,37.7190823 38.2905692,37.6962835 38.2875267,37.6737834 C38.2905692,37.6962835 38.2905692,37.7190823 38.2875267,37.7415825 C38.2641229,37.8254344 38.189653,37.8856386 38.1016649,37.8918399 L38.1016649,37.8918399 Z M44.2759933,16.1319926 L44.184921,16.0422046 L44.2759933,16.1319926 L44.350338,16.0605287 L44.350338,16.0605287 L44.2759933,16.1319926 C44.5213308,16.4984742 44.9766922,16.6817151 45.2443332,17.0481967 C44.9785508,16.6835475 44.5213308,16.4984742 44.2759933,16.1319926 Z M45.7628875,27.6761642 C45.7926254,27.6523429 45.8223633,27.6285216 45.8521012,27.6083651 L45.8521012,27.6083651 C45.8260805,27.630354 45.7963426,27.6468457 45.7666048,27.670667 L45.7628875,27.6761642 Z M46.9319581,25.4864365 L46.8446031,25.5762245 L46.9319581,25.4864365 L46.859472,25.4131401 L46.859472,25.4131401 L46.9319581,25.4864365 C47.1216591,25.4551249 47.2767117,25.3200339 47.3315609,25.1382789 L47.2423473,25.0558205 L47.2423473,25.0558205 C47.2702266,25.0851391 47.2999644,25.1126252 47.3315609,25.1401113 C47.2749471,25.3179739 47.1220644,25.4495945 46.9356754,25.4809392 L46.9319581,25.4864365 Z M52.9074143,8.27829107 L52.7568663,8.52383377 L52.9074143,8.27645866 C52.9830702,8.21834469 53.0330155,8.13365031 53.0468107,8.04007801 C53.0330629,8.13177511 52.9845816,8.21492984 52.9111316,8.27279385 L52.9074143,8.27829107 Z M53.0802658,7.72856861 L53.0802658,7.72856861 L53.0059211,7.65343988 C52.9279947,7.70892341 52.8742189,7.79139505 52.855373,7.88432331 C52.8746392,7.79106582 52.9282752,7.70815568 53.0059211,7.65160747 L53.1917829,7.46836665 L53.0059211,7.65160747 L53.0802658,7.72856861 Z M74.5714634,37.0232785 L74.5714634,37.0232785 C74.5998946,36.9954709 74.6260002,36.9654438 74.6495254,36.9334905 C74.6260002,36.9654438 74.5998946,36.9954709 74.5714634,37.0232785 Z M79.0191358,38.5038643 L79.0191358,38.5038643 L79.0879047,38.4378976 L79.0191358,38.5038643 Z M79.407587,39.0315978 L79.2012804,38.6889375 L79.1139254,38.5991495 L79.2012804,38.6889375 L79.407587,39.0315978 L79.4912248,38.9656311 L79.4912248,38.9656311 L79.407587,39.0315978 Z M81.7996281,39.4951971 L81.7996281,39.4951971 C81.8256487,39.5300129 81.8516694,39.5629962 81.8795486,39.5959796 C81.8516694,39.5629962 81.8237901,39.5300129 81.7996281,39.4951971 Z M86.074449,39.9642936 L86.074449,39.9642936 L86.1264903,39.9221482 L86.074449,39.9642936 Z M89.4887299,42.1503566 L89.4329714,42.0880547 L89.4887299,42.1503566 Z M95.3786897,43.2498015 L95.3786897,43.2498015 C95.4073252,43.2243177 95.4346206,43.1974072 95.4604689,43.1691756 C95.4363069,43.2058237 95.4102862,43.2314774 95.382407,43.2571311 L95.3786897,43.2498015 Z M99.9787688,46.0607157 L99.9062827,46.0204027 L99.9787688,46.0607157 Z M100.579102,44.1256926 C100.726418,43.9785078 100.851597,43.8112829 100.950826,43.62911 L100.950826,43.62911 C100.853343,43.8136347 100.7294,43.9833491 100.58282,44.1330223 L100.579102,44.1256926 Z M102.70722,52.3330489 L102.70722,52.3330489 L102.629158,52.4173397 L102.70722,52.3330489 Z M103.539881,56.6520351 C103.062216,56.0235191 102.575258,55.4059975 102.463741,54.6730342 C102.575258,55.4059975 103.062216,56.0235191 103.541739,56.6520351 C103.568435,56.6199026 103.597642,56.5898814 103.629094,56.5622471 L103.629094,56.5622471 C103.597642,56.5898814 103.568435,56.6199026 103.541739,56.6520351 C103.569618,56.6886832 103.610508,56.7216666 103.63467,56.7583147 C103.614225,56.7289962 103.573336,56.6960129 103.543598,56.6593647 L103.539881,56.6520351 Z M102.93583,48.9174401 C103.030366,48.9158178 103.120474,48.8776507 103.186743,48.8111604 C103.12261,48.8794782 103.033855,48.9202693 102.939547,48.9247697 L102.93583,48.9174401 Z M103.274098,44.7853596 C103.197895,44.4298724 103.088236,44.0523963 102.852192,43.8196805 C103.093812,44.0468991 103.197895,44.4298724 103.274098,44.7853596 C103.58077,44.9044661 103.883725,45.0345671 104.203407,45.1408468 C103.896735,45.0382319 103.584487,44.9117957 103.277815,44.7926892 L103.274098,44.7853596 Z M105.201485,44.926455 C105.095544,45.0583884 105.000754,45.1665005 104.913399,45.2599533 C105.000754,45.1665005 105.099261,45.0583884 105.201485,44.926455 Z M104.759134,44.6057836 C104.842772,44.5251576 104.987744,44.6057836 105.316719,44.8091809 L105.404074,44.9044661 L105.316719,44.8091809 C104.991461,44.6131132 104.846489,44.5324873 104.762851,44.6131132 L104.759134,44.6057836 Z M105.392922,45.1115282 L105.498864,45.0034162 L105.498864,45.0034162 C105.465409,45.0382319 105.431953,45.0822097 105.39664,45.1188579 L105.392922,45.1115282 Z M109.401961,61.2183963 L109.401961,61.2183963 C109.41683,61.1744185 109.433558,61.1322731 109.450285,61.0882953 C109.437275,61.1396027 109.420547,61.1817481 109.405678,61.2257259 L109.401961,61.2183963 Z M114.40536,52.4081777 L114.329157,52.3440434 L114.40536,52.4081777 Z" id="Shape"></path>
                <polygon id="Path" points="36.0065035 66 36.0065035 66 35.9934965 66"></polygon>
            </g>
        </g>
    </g>
</svg>