<svg xmlns="http://www.w3.org/2000/svg" viewBox="0 0 136.06 152"><defs><style>.cls-1{fill:#442b2d;}</style></defs><title>Asset 7</title><g id="Layer_2" data-name="Layer 2"><g id="Layer_1-2" data-name="Layer 1"><rect class="cls-1" width="44" height="8" rx="4"/><rect class="cls-1" y="18" width="30" height="8" rx="4"/><rect class="cls-1" y="36" width="30" height="8" rx="4"/><rect class="cls-1" y="54" width="30" height="8" rx="4"/><rect class="cls-1" y="72" width="44" height="8" rx="4"/><rect class="cls-1" y="90" width="30" height="8" rx="4"/><rect class="cls-1" y="108" width="30" height="8" rx="4"/><rect class="cls-1" y="126" width="30" height="8" rx="4"/><rect class="cls-1" y="144" width="44" height="8" rx="4"/><circle class="cls-1" cx="96.36" cy="41.08" r="23.08"/><path class="cls-1" d="M67.46,62.77H79.85a0,0,0,0,1,0,0V95.61a6.19,6.19,0,0,1-6.19,6.19h0a6.19,6.19,0,0,1-6.19-6.19V62.77a0,0,0,0,1,0,0Z" transform="translate(87.28 -27.3) rotate(48.92)"/><path class="cls-1" d="M96.36,117.09h0c-11.2,0-19.14-4.57-19.14-15.76L76.09,81.06A20.26,20.26,0,0,1,96.36,60.79h0a20.27,20.27,0,0,1,20.27,20.27l-1.13,20.27C115.5,112.52,107.55,117.09,96.36,117.09Z"/><path class="cls-1" d="M77.22,97.95H94.11a0,0,0,0,1,0,0v45.61A8.45,8.45,0,0,1,85.66,152h0a8.45,8.45,0,0,1-8.45-8.45V97.95a0,0,0,0,1,0,0Z"/><path class="cls-1" d="M98.61,97.95H115.5a0,0,0,0,1,0,0v45.61a8.45,8.45,0,0,1-8.45,8.45h0a8.45,8.45,0,0,1-8.45-8.45V97.95a0,0,0,0,1,0,0Z"/><path class="cls-1" d="M119.82,63.9h0A6.19,6.19,0,0,1,126,70.09v32.84a0,0,0,0,1,0,0H113.63a0,0,0,0,1,0,0V70.09A6.19,6.19,0,0,1,119.82,63.9Z" transform="translate(261.43 47.9) rotate(131.08)"/></g></g></svg>