<svg xmlns="http://www.w3.org/2000/svg" viewBox="0 0 186 186"><defs><style>.cls-1{fill:#442b2d;}.cls-2{fill:#fff;}</style></defs><title>Asset 6</title><g id="Layer_2" data-name="Layer 2"><g id="Layer_1-2" data-name="Layer 1"><circle class="cls-1" cx="93" cy="93" r="61"/><path class="cls-1" d="M93,0a93,93,0,1,0,93,93A93,93,0,0,0,93,0Zm0,162.46A69.46,69.46,0,1,1,162.46,93,69.54,69.54,0,0,1,93,162.46Z"/><path class="cls-2" d="M111.16,98.4c.94-1,.06-3.35-2-5.23s-4.42-2.58-5.36-1.57-.06,3.35,2,5.23S110.22,99.41,111.16,98.4Z"/><path class="cls-2" d="M125.79,91c1.11-2.53,1-5-.29-5.58s-3.19,1-4.29,3.58-1,5,.29,5.58S124.69,93.53,125.79,91Z"/><path class="cls-2" d="M130.83,100.5c-.69-1.2-3.19-1-5.58.33s-3.77,3.47-3.08,4.67,3.19,1,5.58-.33S131.52,101.7,130.83,100.5Z"/><path class="cls-2" d="M118.5,104c-1.24,0-2.27,1.82-2.46,4.2-1.16.33-2.38,2-3,4.16-.7,2.67-.19,5.12,1.15,5.48s2.9-1.45,3.63-4a1.39,1.39,0,0,0,.64.19c1.38,0,2.5-2.24,2.5-5S119.88,104,118.5,104Z"/><path class="cls-2" d="M111.79,109c1.11-2.53,1-5-.29-5.58s-3.19,1-4.29,3.58-1,5,.29,5.58S110.69,111.53,111.79,109Z"/><path class="cls-2" d="M103.81,116c-1.37-.09-2.63,2.08-2.81,4.83s.81,5.06,2.19,5.15,2.63-2.08,2.81-4.83S105.19,116.1,103.81,116Z"/><path class="cls-2" d="M110.81,121c-1.37-.09-2.63,2.08-2.81,4.83s.81,5.06,2.19,5.15,2.63-2.08,2.81-4.83S112.19,121.1,110.81,121Z"/><path class="cls-2" d="M103,135c-.15-.11-.3-.2-.45-.29a1.84,1.84,0,0,0,1-1.37c.09-1.37-2.08-2.63-4.83-2.81s-5.06.81-5.15,2.19c-.07,1.18,1.53,2.28,3.73,2.67A6.69,6.69,0,0,0,100,139c2.24,1.61,4.72,2,5.52.89S105.2,136.58,103,135Z"/><path class="cls-2" d="M126.4,119.46c-1.25.58-1.33,3.08-.17,5.59s3.12,4.07,4.37,3.49,1.33-3.08.17-5.59S127.65,118.88,126.4,119.46Z"/><path class="cls-2" d="M137.94,115.45c-.6-2.69-2.18-4.63-3.53-4.33s-1.95,2.73-1.35,5.43,2.18,4.63,3.53,4.33S138.54,118.15,137.94,115.45Z"/><path class="cls-2" d="M98.21,118.37c1.78-3.58,0-6.71-1.82-7.59-4.48-2.22-6.25,1.36-9.84-.42s-2.7-5.8-6.28-7.58-5.82.47-7.15,3.16c-2.22,4.48,1.38,10.73,9.45,14.72S96.44,122,98.21,118.37Z"/><path class="cls-2" d="M84,125c-5,0-5,4-9,4s-5-4-9-4-5,3-5,6c0,5,6,9,15,9s13-5,13-9S86,125,84,125Z"/><path class="cls-2" d="M99,93.09c5.21-5.15,4.67-10.33,2.38-12.65s-5.17-1.76-6.33-.61c-2.9,2.86-.61,5.18-2.92,7.46s-5.19.55-7.5,2.84-1.18,4.6.53,6.33C88,99.36,93.79,98.24,99,93.09Z"/><path class="cls-2" d="M67.56,122.29c2.92-1.81,3-4.91,2.13-6.37-2.26-3.66-5.19-1.85-7-4.77s.66-5.47-1.14-8.39-4.46-2.3-6.65-1c-3.66,2.26-3.87,8.45.19,15S64.63,124.09,67.56,122.29Z"/></g></g></svg>