<svg xmlns="http://www.w3.org/2000/svg" viewBox="0 0 161.92 138.42"><defs><style>.cls-1{fill:#442b2d;}.cls-2{opacity:0.3;}</style></defs><title>Asset 5</title><g id="Layer_2" data-name="Layer 2"><g id="Layer_1-2" data-name="Layer 1"><path class="cls-1" d="M148,0H13.93A13.93,13.93,0,0,0,0,13.93V124.49a13.93,13.93,0,0,0,13.93,13.93H148a13.93,13.93,0,0,0,13.92-13.93V13.93A13.93,13.93,0,0,0,148,0Zm-4,40.92L126.41,71.44a4.35,4.35,0,0,1-5.8,1.67,86.66,86.66,0,0,0-79.29,0,4.36,4.36,0,0,1-5.81-1.67L17.89,40.92a4.35,4.35,0,0,1,1.71-6,130.54,130.54,0,0,1,122.72,0A4.36,4.36,0,0,1,144,40.92Z"/><g class="cls-2"><path class="cls-1" d="M22.67,41.83,37.78,68a3.48,3.48,0,0,0,4.64,1.33A73,73,0,0,1,65,62a3.5,3.5,0,0,0,2.91-4.23L61,28.29a3.5,3.5,0,0,0-4-2.65A110.47,110.47,0,0,0,24.05,37,3.49,3.49,0,0,0,22.67,41.83Z"/></g><path class="cls-1" d="M75.06,91.6,74,92.18A2,2,0,0,1,71.39,91L48.22,46.23a2,2,0,0,1,.49-2.73h0a2,2,0,0,1,2.54,1.11l24.27,44.2A2,2,0,0,1,75.06,91.6Z"/></g></g></svg>