<?xml version="1.0" encoding="utf-8"?>
<!-- Generator: Adobe Illustrator 24.1.0, SVG Export Plug-In . SVG Version: 6.00 Build 0)  -->
<svg version="1.1" id="Layer_1" xmlns="http://www.w3.org/2000/svg" xmlns:xlink="http://www.w3.org/1999/xlink" x="0px" y="0px"
	 viewBox="0 0 500 94.46" style="enable-background:new 0 0 500 94.46;" xml:space="preserve">
<style type="text/css">
	.st0{fill-rule:evenodd;clip-rule:evenodd;fill:#149FDA;}
	.st1{fill:#212121;}
	.st2{fill:#149FDA;}
	.st3{fill:#268BCB;}
	.st4{fill:#F8971D;}
	.st5{fill:#E16625;}
	.st6{fill:#FFFFFF;}
</style>
<g>
	<path class="st0" d="M490.27,17.11h-3.92l-5.49,15.08h3.92L490.27,17.11L490.27,17.11z M475.35,49.29c-0.24,0-0.49,0-0.73-0.01
		l5.04-13.84h6.93c1.22,0,2.55-0.93,2.97-2.08l5.46-15.01c0.9-2.46-0.51-4.47-3.13-4.47h-9.61l-8.07,22.17h0l-4.57,12.57
		c-10.85-2.58-18.92-12.33-18.92-23.97c0-11.3,7.61-20.83,17.99-23.73l-4.72,12.97h0l-7.85,21.55h5.22l6.67-18.31h3.92l-6.67,18.31
		l5.22,0l6.22-17.09c0.89-2.46-0.51-4.47-3.12-4.47h-4.39l5.04-13.85c0.37-0.02,0.74-0.03,1.11-0.03C488.97,0,500,11.03,500,24.64
		C500,38.25,488.97,49.29,475.35,49.29z"/>
	<g>
		<g>
			<path class="st1" d="M410.96,32.32h-1.93V11.47h1.93v8.38c1.64-1.98,3.68-2.97,6.03-2.97c4.39,0,7.73,3.65,7.73,7.93
				c0,4.25-3.4,7.9-7.79,7.9c-2.43,0-4.45-1.08-5.97-3.17V32.32z M422.74,24.76c0-3.26-2.58-6.12-5.95-6.12
				c-3.09,0-5.98,2.29-5.98,6.06c0,3.48,2.58,6.15,5.98,6.15C420.28,30.85,422.74,27.99,422.74,24.76z"/>
			<path class="st1" d="M426.59,17.28h2.04l5.18,11.58l5.01-11.58h2.07l-8.98,20.53h-2.04l2.89-6.63L426.59,17.28z"/>
		</g>
	</g>
	<g>
		<path class="st1" d="M47.74,51.74l-1.61,1.67c-1.61,1.67-3.54,2.97-5.74,3.86c-4.44,1.81-9.62,1.78-13.85,0.03
			c-2.14-0.89-4.03-2.12-5.63-3.65c-1.59-1.53-2.87-3.34-3.8-5.38c-0.92-2.02-1.39-4.22-1.39-6.54c0-2.32,0.47-4.53,1.39-6.58
			c0.93-2.07,2.2-3.88,3.79-5.39c1.6-1.52,3.49-2.74,5.63-3.63c4.23-1.76,9.41-1.79,13.85,0.03c2.2,0.9,4.13,2.2,5.74,3.86
			l1.61,1.67l8.49-13.41l-1.14-0.95c-2.99-2.5-6.39-4.43-10.11-5.74c-3.71-1.3-7.6-1.97-11.57-1.97c-3.05,0-6.03,0.39-8.86,1.15
			c-2.82,0.76-5.5,1.85-7.97,3.24c-2.46,1.39-4.74,3.08-6.77,5.03c-2.03,1.95-3.79,4.13-5.24,6.5C3.12,27.9,1.99,30.48,1.2,33.2
			C0.4,35.93,0,38.8,0,41.72c0,2.93,0.4,5.79,1.2,8.5c0.79,2.71,1.93,5.28,3.38,7.65c1.45,2.37,3.22,4.56,5.24,6.5
			c2.03,1.95,4.31,3.64,6.77,5.03c2.47,1.39,5.15,2.48,7.97,3.24c2.83,0.76,5.81,1.15,8.86,1.15c3.97,0,7.87-0.67,11.58-1.99
			c3.71-1.32,7.1-3.24,10.09-5.71l1.15-0.95L47.74,51.74z"/>
		<path class="st1" d="M106,65.76c-5.4,5.28-11.14,8.04-18.83,8.04c-15.5,0-29.05-13.32-29.05-32.04
			c0-19.06,12.86-32.15,28.71-32.15c7.35,0,13.66,2.76,19.18,8.27v-6.66h15.27v60.97H106V65.76z M73.51,41.64
			c0,10.45,6.89,18.14,16.42,18.14c9.42,0,16.76-7.12,16.76-18.26c0-10.68-7.12-17.91-16.76-17.91
			C79.82,23.62,73.51,31.65,73.51,41.64z"/>
		<path class="st1" d="M148.3,17.41c5.86-4.94,11.25-7.81,18.03-7.81c11.37,0,20.9,7.81,20.9,20.9v41.68h-15.27V43.37
			c0-12.06-1.03-19.75-10.33-19.75c-4.25,0-7.92,2.07-10.33,5.86c-3.1,4.94-2.99,10.45-2.99,16.76v25.95h-15.27V11.21h15.27V17.41z"
			/>
		<path class="st1" d="M282.96,17.87c5.51-5.51,11.83-8.27,19.18-8.27c15.73,0,28.82,13.09,28.82,32.15
			c0,18.72-13.66,32.04-29.17,32.04c-7.69,0-13.32-2.76-18.83-8.04v28.71h-15.27V11.21h15.27V17.87z M282.27,41.53
			c0,11.02,7.35,18.26,16.76,18.26c9.53,0,16.53-7.69,16.53-18.14c0-9.99-6.43-18.03-16.53-18.03
			C289.27,23.62,282.27,30.85,282.27,41.53z"/>
		<path class="st1" d="M331.74,11.21h15.62l15.85,38.24l17.57-38.24h15.73l-38.35,83.25h-15.73l12.52-26.87L331.74,11.21z"/>
		<g>
			<path class="st2" d="M259.13,33.56c-0.79-2.83-1.9-5.47-3.33-7.92c-1.43-2.45-3.16-4.68-5.19-6.71
				c-2.03-2.03-4.27-3.76-6.71-5.19c-2.45-1.43-5.09-2.54-7.92-3.33c-2.83-0.79-5.77-1.19-8.82-1.19c-3.04,0-5.97,0.4-8.79,1.19
				c-2.82,0.79-5.46,1.9-7.92,3.33c-2.46,1.43-4.71,3.16-6.74,5.19c-2.03,2.03-3.77,4.27-5.21,6.71c-1.45,2.45-2.57,5.09-3.36,7.92
				c-0.79,2.84-1.19,5.77-1.19,8.82c0,3.04,0.4,5.97,1.19,8.79c0.79,2.82,1.91,5.46,3.36,7.92c1.45,2.46,3.18,4.71,5.21,6.74
				c0.71,0.71,1.48,1.34,2.24,1.98l7.36-7.36c-0.79-0.61-1.55-1.25-2.26-1.96c-0.78-0.78-1.5-1.62-2.15-2.49
				c-0.51-0.68-0.99-1.39-1.43-2.13c-0.99-1.69-1.76-3.5-2.3-5.44c-0.53-1.9-0.8-3.88-0.81-5.93c0-0.04,0-0.08,0-0.11
				c0-2.09,0.27-4.11,0.81-6.05c0.54-1.95,1.31-3.76,2.3-5.44c0.99-1.68,2.19-3.22,3.58-4.61c1.39-1.39,2.93-2.58,4.63-3.56
				c1.69-0.98,3.5-1.75,5.44-2.29c1.94-0.54,3.95-0.81,6.04-0.81c0.03,0,0.06,0,0.08,0c2.06,0.01,4.05,0.28,5.97,0.81
				c1.95,0.54,3.76,1.31,5.44,2.29c0.87,0.51,1.71,1.08,2.51,1.71c0.73,0.57,1.44,1.19,2.1,1.86c0.67,0.67,1.28,1.37,1.86,2.1
				l15.17,15.17c0.01-0.39,0.04-0.78,0.04-1.18C260.32,39.34,259.93,36.4,259.13,33.56z"/>
			<path class="st3" d="M246.82,30.89c0.98,1.68,1.75,3.49,2.29,5.44c0.54,1.95,0.81,3.96,0.81,6.05c0,1.07-0.07,2.13-0.22,3.16
				c-0.14,0.98-0.33,1.94-0.6,2.88c-0.54,1.94-1.31,3.75-2.29,5.44s-2.17,3.23-3.56,4.63c-0.72,0.72-1.49,1.39-2.3,2l7.36,7.36
				c0.78-0.65,1.56-1.3,2.29-2.03c1.91-1.91,3.55-4.02,4.93-6.32c0.08-0.14,0.18-0.28,0.26-0.42c0.94-1.61,1.72-3.31,2.38-5.07
				c0.35-0.93,0.68-1.88,0.95-2.85c0.69-2.45,1.06-5,1.15-7.62l-15.17-15.17C245.74,29.18,246.31,30.02,246.82,30.89z"/>
			<path class="st4" d="M218.67,53.53c-0.52-0.39-1.01-0.8-1.47-1.26c-0.46-0.46-0.88-0.96-1.27-1.48c-0.68-0.9-1.27-1.88-1.74-2.96
				c-0.25-0.57-0.44-1.16-0.61-1.76c-0.32-1.17-0.5-2.39-0.5-3.66c0-1.93,0.37-3.74,1.11-5.45c0.74-1.71,1.74-3.2,3.01-4.46
				c1.27-1.26,2.76-2.26,4.46-3c0,0,0,0,0,0c0.01,0,0.01-0.01,0.02-0.01c1.7-0.74,3.52-1.11,5.47-1.11c1.26,0,2.47,0.17,3.64,0.49
				c0.62,0.17,1.23,0.36,1.82,0.62c0.8,0.34,1.54,0.75,2.24,1.21c0.8,0.52,1.55,1.12,2.22,1.79c0.67,0.67,1.27,1.42,1.79,2.22
				l10.85,10.85c0.14-1.03,0.22-2.09,0.22-3.16c0-2.09-0.27-4.11-0.81-6.05c-0.54-1.95-1.31-3.76-2.29-5.44
				c-0.51-0.88-1.08-1.71-1.71-2.51c-0.57-0.73-1.19-1.44-1.86-2.1c-0.67-0.67-1.37-1.28-2.1-1.86c-0.8-0.62-1.63-1.19-2.51-1.71
				c-1.68-0.98-3.49-1.75-5.44-2.29c-1.92-0.54-3.91-0.8-5.97-0.81c-0.03,0-0.06,0-0.08,0c-2.09,0-4.1,0.27-6.04,0.81
				c-1.94,0.54-3.75,1.31-5.44,2.29c-1.69,0.98-3.23,2.17-4.63,3.56c-1.39,1.39-2.59,2.93-3.58,4.61c-0.99,1.68-1.76,3.49-2.3,5.44
				c-0.54,1.95-0.81,3.96-0.81,6.05c0,0.04,0,0.08,0,0.11c0.01,2.05,0.28,4.02,0.81,5.93c0.54,1.94,1.31,3.75,2.3,5.44
				c0.44,0.74,0.92,1.45,1.43,2.13c0.66,0.88,1.37,1.71,2.15,2.49c0.71,0.71,1.47,1.35,2.26,1.96l6.35-6.35
				C219.34,53.9,218.97,53.75,218.67,53.53z"/>
			<path class="st5" d="M240.06,36.93c0.74,1.71,1.11,3.53,1.11,5.45c0,1.93-0.37,3.73-1.11,5.42c-0.74,1.69-1.74,3.17-3,4.44
				c-0.73,0.74-1.56,1.35-2.44,1.91l6.33,6.33c0.8-0.62,1.57-1.28,2.3-2c1.39-1.39,2.58-2.93,3.56-4.63s1.75-3.5,2.29-5.44
				c0.26-0.94,0.46-1.9,0.6-2.88l-10.85-10.85C239.31,35.39,239.71,36.14,240.06,36.93z"/>
			<path class="st6" d="M240.96,60.49l-4.67-4.67l-1.66-1.66c0,0-0.01,0-0.01,0.01v0c0,0,0.01,0,0.01-0.01
				c0.87-0.55,1.69-1.17,2.41-1.9c1.26-1.27,2.26-2.75,3-4.44c0.74-1.69,1.11-3.5,1.11-5.42c0-1.93-0.37-3.74-1.11-5.45
				c-0.34-0.8-0.75-1.54-1.21-2.24c-0.52-0.8-1.12-1.55-1.79-2.22c-0.67-0.67-1.42-1.27-2.22-1.79c-0.7-0.46-1.44-0.86-2.24-1.21
				c-0.59-0.25-1.2-0.45-1.82-0.62c-1.17-0.32-2.38-0.49-3.64-0.49c-1.95,0-3.77,0.37-5.47,1.11c-1.69,0.74-3.17,1.73-4.43,2.98
				c-1.27,1.26-2.27,2.75-3.01,4.46c-0.74,1.71-1.11,3.53-1.11,5.45c0,1.27,0.18,2.49,0.5,3.66c0.17,0.6,0.36,1.19,0.61,1.76
				c0.47,1.07,1.06,2.05,1.74,2.96c0.39,0.52,0.81,1.02,1.27,1.48c0.46,0.46,0.96,0.87,1.47,1.26c0.3,0.22,0.66,0.37,0.97,0.57
				l-0.02,0.02l-1.66,1.66l-4.69,4.69l-7.34,7.34c1.21,0.98,2.47,1.89,3.79,2.7c2.56,1.57,5.34,2.79,8.28,3.64
				c2.95,0.86,6.04,1.29,9.19,1.29c3.16,0,6.24-0.43,9.17-1.29c2.92-0.85,5.7-2.08,8.25-3.64c1.18-0.73,2.32-1.54,3.41-2.41
				c0.09-0.08,0.17-0.16,0.26-0.23L240.96,60.49z"/>
		</g>
	</g>
</g>
</svg>
