<svg id="Layer_1" data-name="Layer 1" xmlns="http://www.w3.org/2000/svg" viewBox="0 0 256 256"><defs><style>.cls-1{fill:#14e6cf;}</style></defs><title>icon_wireframe</title><rect class="cls-1" x="55.93" y="50.78" width="147.28" height="85.81"/><rect x="98.81" y="28.09" width="94.29" height="6.74"/><rect x="199.84" y="28.09" width="6.74" height="6.74"/><path d="M61.77,56.38V126H194.23V56.38Zm30.42,62.86,30.43-30.07,15.06,14.77-14.29,15.3Zm95.3,0H132.61l37-39.58L187.49,95v24.27Zm0-33.12L169,70.36,142.28,99,122.6,79.72l-40,39.52H68.51V63.12h119v23Z"/><path d="M87.59,69.85A12.35,12.35,0,1,0,99.94,82.2,12.36,12.36,0,0,0,87.59,69.85Zm0,18A5.61,5.61,0,1,1,93.2,82.2,5.62,5.62,0,0,1,87.59,87.81Z"/><path d="M211.29,182.11v-18H131.37V152.92h89.8V13.28H34.83V152.92h89.8v11.23H44.71v18H13.28v60.62h69.6V182.11H51.44V170.88h73.19v11.23H93.2v60.62h69.6V182.11H131.37V170.88h73.19v11.23H173.13v60.62h69.6V182.11ZM76.14,236H20V202.31H76.14Zm0-47.15v6.74H20v-6.74ZM41.56,20H214.44v22.9H41.56Zm114.5,216H99.94V202.31h56.13V236Zm0-47.15v6.74H99.94v-6.74ZM41.56,146.19V49.65H214.44v96.54H41.56ZM236,236H179.86V202.31H236Zm0-40.41H179.86v-6.74H236Z"/><rect x="48.86" y="28.09" width="6.74" height="6.74"/><rect x="75.8" y="28.09" width="6.74" height="6.74"/><rect x="62.33" y="28.09" width="6.74" height="6.74"/><rect x="125.75" y="132.71" width="6.74" height="6.74"/><rect x="139.23" y="132.71" width="24.7" height="6.74"/><rect x="92.08" y="132.71" width="26.94" height="6.74"/><rect x="145.51" y="69.85" width="8.98" height="6.74"/><rect x="132.04" y="69.85" width="6.74" height="6.74"/><rect x="52.56" y="222.52" width="6.74" height="6.74"/><rect x="27.87" y="222.52" width="17.96" height="6.74"/><rect x="57.06" y="209.05" width="11.23" height="6.74"/><rect x="27.87" y="209.05" width="22.45" height="6.74"/><rect x="132.49" y="222.52" width="6.74" height="6.74"/><rect x="107.79" y="222.52" width="17.96" height="6.74"/><rect x="136.98" y="209.05" width="11.23" height="6.74"/><rect x="107.79" y="209.05" width="22.45" height="6.74"/><rect x="187.72" y="222.52" width="17.96" height="6.74"/><rect x="212.42" y="222.52" width="6.74" height="6.74"/><rect x="216.91" y="209.05" width="11.23" height="6.74"/><rect x="187.72" y="209.05" width="22.45" height="6.74"/></svg>