<svg id="Layer_1" data-name="Layer 1" xmlns="http://www.w3.org/2000/svg" viewBox="0 0 256 256"><defs><style>.cls-1{fill:#14e6cf;}</style></defs><title>icon_interview</title><rect class="cls-1" x="101.63" width="103.73" height="85.81"/><path d="M184.39,17a3.54,3.54,0,0,0-2.48-1H92.84a3.52,3.52,0,0,0-3.52,3.52V35.38a3.52,3.52,0,1,0,7,0V23h82V91H135a3.52,3.52,0,0,0-1.3.25L115.11,98.7V94.52A3.52,3.52,0,0,0,111.59,91H96.36V49.44a3.52,3.52,0,0,0-7,0V94.52A3.51,3.51,0,0,0,92.84,98h15.23v5.85a3.51,3.51,0,0,0,3.52,3.52,3.44,3.44,0,0,0,1.3-.25L135.71,98h46.2a3.51,3.51,0,0,0,3.52-3.52v-75A3.52,3.52,0,0,0,184.39,17Z"/><path d="M224.09,216.16H213.55v-7.78a40.91,40.91,0,0,0,14.06-30.87V164c2.75-13.82,1.49-24.06-3.75-30.45a17.56,17.56,0,0,0-10.31-6.14V111.86a3.52,3.52,0,0,0-3.52-3.52h-4.09l-4.43,0c-17,0-36,1.07-47.31,13.89-8.14,9.22-11,22.83-8.61,41.61V177.5a40.91,40.91,0,0,0,14.06,30.88v7.78H149.09a17.6,17.6,0,0,0-17.58,17.58v18.75A3.52,3.52,0,0,0,135,256H238.16a3.52,3.52,0,0,0,3.52-3.52V233.74A17.6,17.6,0,0,0,224.09,216.16Zm-64.63-89.3c9.37-10.62,26.62-11.51,42-11.51l4.4,0h.61v15.25a3.49,3.49,0,0,0,3.7,3.51,10.79,10.79,0,0,1,8.2,3.89c2.4,2.93,3.6,7.42,3.57,13.24l-1.53-3.06a3.51,3.51,0,0,0-4.21-1.78c-.21.07-21,6.66-33.06,6.66-11.53,0-22-6.25-22.05-6.31a3.51,3.51,0,0,0-4.65.89l-4.64,6.19C151.57,142,154.12,132.91,159.46,126.85Zm-6.85,50.65V164.57l7.7-10.26c4.33,2.16,13.13,5.81,22.89,5.81,10.41,0,25.92-4.23,32.31-6.11l5.08,10.15V177.5a34,34,0,0,1-68,0Zm53.91,35.83v4.46l-10.8,7.2-5.61-2.8v-3.84A40.73,40.73,0,0,0,206.52,213.33Zm-23.44,5V222l-7.6,3-8.8-7v-4.65A40.72,40.72,0,0,0,183.08,218.35ZM169,249H152.61v-7H169Zm65.62-15.23V249H176V238.42a3.52,3.52,0,0,0-3.52-3.52H149.09a3.52,3.52,0,0,0-3.52,3.52V249h-7V233.74a10.56,10.56,0,0,1,10.55-10.55h12.83l10.76,8.6.1.07.31.2.19.11.31.14.21.08.35.09.18,0a3.48,3.48,0,0,0,.55,0l.37,0h.07l.29,0,.12,0,.23-.06.15-.05.09,0,10.25-4.1,8,4,.16.07.19.08.26.08.13,0,.37.07h0l.42,0a3.51,3.51,0,0,0,.49,0l.21,0,.27-.06.21-.08.26-.1.18-.09.27-.15.06,0,13.17-8.78h13a10.56,10.56,0,0,1,10.55,10.54Z"/><path d="M106.91,216.16H91.67v-4.24a41,41,0,0,0,18.75-34.42v-7.75l4.68,1.67a3.52,3.52,0,0,0,4.7-3.31c0-21.1-4.06-36.77-12.07-46.56-6.58-8-15.63-12.13-26.89-12.13-13.13,0-25.43,5.64-29.8,7.88l-8.24-3.92a3.51,3.51,0,0,0-3.27.13c-1.41.82-13.68,8.88-11.13,40.67V177.5a41,41,0,0,0,18.75,34.42v4.24H31.91a17.6,17.6,0,0,0-17.58,17.58v18.75A3.52,3.52,0,0,0,17.84,256H121a3.52,3.52,0,0,0,3.52-3.52V233.74A17.6,17.6,0,0,0,106.91,216.16ZM41.85,120.71l7.76,3.69a3.52,3.52,0,0,0,3.26-.13c.14-.08,13.84-7.84,28-7.84,20.13,0,30.83,15.69,31.85,46.65L51.84,141.36a3.52,3.52,0,0,0-2.75.17l-14,7C34.6,130.9,39.47,123.34,41.85,120.71ZM35.42,177.5V156.22l15.47-7.73,52.5,18.75V177.5a34,34,0,0,1-68,0Zm49.22,38.07v4.11h0a15.23,15.23,0,1,1-30.47,0v-4.11a41,41,0,0,0,30.47,0Zm32.81,18.17V249H21.36V233.74a10.56,10.56,0,0,1,10.55-10.55H47.42a22.26,22.26,0,0,0,44,0h15.51a10.56,10.56,0,0,1,10.55,10.54Z"/><path d="M148.15,34.52a15.23,15.23,0,0,0-26,10.77,3.52,3.52,0,1,0,7,0h0a8.19,8.19,0,1,1,8.25,8.21h0A3.52,3.52,0,0,0,133.86,57v9.38a3.52,3.52,0,1,0,7,0V60.12h0a15.23,15.23,0,0,0,7.26-25.6Z"/><path d="M137.38,72.25a3.52,3.52,0,0,0-3.52,3.52v4.68a3.52,3.52,0,0,0,7,0V75.77A3.52,3.52,0,0,0,137.38,72.25Z"/></svg>