<svg id="Layer_1" data-name="Layer 1" xmlns="http://www.w3.org/2000/svg" viewBox="0 0 256 256"><defs><style>.cls-1{fill:#14e6cf;}</style></defs><title>icon_interpret</title><path class="cls-1" d="M117.09,31.5a72.27,72.27,0,1,1-72.27,72.27A72.35,72.35,0,0,1,117.09,31.5m0-30A102.27,102.27,0,1,0,219.35,103.77,102.27,102.27,0,0,0,117.09,1.5Z"/><path d="M108,30.51a84,84,0,1,0,84,84A84,84,0,0,0,108,30.51Zm0,8a75.92,75.92,0,0,1,62.06,32.28l-10,10A15.78,15.78,0,0,0,152,78.51a16,16,0,0,0-16,16,15.79,15.79,0,0,0,2.27,8.08l-26.19,26.19a15.51,15.51,0,0,0-16.15,0L77.78,110.58A15.79,15.79,0,0,0,80,102.51a16,16,0,0,0-31.43-4H33.78A76.1,76.1,0,0,1,108,38.51Zm52,56a8,8,0,1,1-8-8A8,8,0,0,1,160,94.51Zm-48,48a8,8,0,1,1-8-8A8,8,0,0,1,112,142.51Zm-40-40a8,8,0,1,1-8-8A8,8,0,0,1,72,102.51ZM145,181A76,76,0,0,1,32.48,106.51H48.62a16,16,0,0,0,15.43,12,15.79,15.79,0,0,0,8.08-2.27l18.19,18.19A15.79,15.79,0,0,0,88,142.51a16,16,0,1,0,32,0,15.79,15.79,0,0,0-2.27-8.08L144,108.24a15.79,15.79,0,0,0,8.08,2.27,16,16,0,0,0,16-16,15.79,15.79,0,0,0-2.27-8.08l8.72-8.72A75.93,75.93,0,0,1,145,181Z"/><path d="M208,54.51a16,16,0,0,0,15.43-12H248v-8H223.47a16,16,0,0,0-31.43,4,15.79,15.79,0,0,0,2.27,8.08l-7,7a100,100,0,1,0-25,144.82l12.07,12.07,5.66,5.66,32.2,32.2A21,21,0,1,0,241.9,218.7l-32.2-32.2L204,180.85,192,168.78a99.66,99.66,0,0,0,0-108.54l8-8A15.79,15.79,0,0,0,208,54.51Zm0-24a8,8,0,1,1-8,8A8,8,0,0,1,208,30.51Zm28.2,193.85a13,13,0,0,1-18.13,18.55l-.21-.21-32.2-32.2L204,192.16ZM198.39,186.5,180,204.85,169,193.78c.56-.43,1.09-.91,1.65-1.35s1.2-1,1.8-1.48c.88-.74,1.74-1.48,2.59-2.24l1.28-1.2q2.46-2.3,4.76-4.76l1.2-1.28c.76-.85,1.51-1.71,2.24-2.59q.75-.89,1.48-1.8c.44-.55.92-1.08,1.35-1.64Zm-15.51-18.58c-1.26,1.76-2.56,3.48-3.93,5.14-.4.48-.83,1-1.24,1.43q-1.84,2.14-3.79,4.14-.85.88-1.73,1.73-2,2-4.14,3.79c-.48.4-.94.84-1.43,1.24-1.66,1.37-3.38,2.67-5.14,3.93a92.14,92.14,0,1,1,21.41-21.41Z"/></svg>