<svg id="Layer_1" data-name="Layer 1" xmlns="http://www.w3.org/2000/svg" viewBox="0 0 256 256"><defs><style>.cls-1{fill:#14e6cf;}</style></defs><title>icon_anas</title><path class="cls-1" d="M251.64,121.52c0-76.86-47.83-118.14-117.19-117.17V121.52Z"/><rect x="3" y="19.67" width="37.5" height="8.33"/><rect x="3" y="36.33" width="37.5" height="8.33"/><rect x="215.5" y="3" width="37.5" height="8.33"/><rect x="215.5" y="19.67" width="37.5" height="8.33"/><path d="M222.58,48.83l12.08-9.08-5-6.75-12.5,9.46a99.58,99.58,0,0,0-72.5-31.12,4.17,4.17,0,0,0-4.17,4.17v95.83a4.17,4.17,0,0,0,4.17,4.17H240.5a4.17,4.17,0,0,0,4.17-4.17A99.5,99.5,0,0,0,222.58,48.83Zm-73.75,58.33V19.67a91.38,91.38,0,0,1,61.5,27.75L196.33,58l5,6.67,14.54-10.92a91.12,91.12,0,0,1,20.46,53.42Z"/><rect x="215.5" y="194.67" width="37.5" height="8.33"/><rect x="215.5" y="211.33" width="37.5" height="8.33"/><path d="M219.67,167.67A100,100,0,0,0,228,128a4.17,4.17,0,0,0-4.17-4.17H132.17V32.17A4.17,4.17,0,0,0,128,28,100,100,0,0,0,45.08,72.17L22.25,53.92l-5.17,6.5L40.71,79.33A100,100,0,0,0,212.38,181.94q2-3.31,3.7-6.77l13.58,10.33,5-6.67ZM60.21,189.55A91.28,91.28,0,0,1,47.29,84.63l11.46,9.13,5.17-6.5-12.5-9.83a91.67,91.67,0,0,1,72.42-41.08V128a4.17,4.17,0,0,0,1.21,3l64.67,64.67A91.67,91.67,0,0,1,60.21,189.55Zm152.7-27.09-11.58-8.62-5,6.67,12.92,9.71a93.58,93.58,0,0,1-13.63,19.5L138,132.17h81.63A91.67,91.67,0,0,1,212.92,162.46Z"/><rect x="82.17" y="244.67" width="8.33" height="8.33"/><rect x="98.83" y="244.67" width="8.33" height="8.33"/><rect x="115.5" y="244.67" width="8.33" height="8.33"/><rect x="132.17" y="244.67" width="8.33" height="8.33"/><rect x="148.83" y="244.67" width="8.33" height="8.33"/><rect x="165.5" y="244.67" width="8.33" height="8.33"/><rect x="3" y="203" width="37.5" height="8.33"/><rect x="3" y="219.67" width="29.17" height="8.33"/><rect x="3" y="186.33" width="37.5" height="8.33"/></svg>